<svg width="680" height="300" viewBox="0 0 680 300" fill="none" xmlns="http://www.w3.org/2000/svg">
<rect width="680" height="300" fill="white"/>
<path d="M347.652 160.031V155.812C349.609 154.98 351.203 154.318 352.434 153.826C353.676 153.322 354.654 152.941 355.369 152.684C356.084 152.426 356.623 152.25 356.986 152.156C357.361 152.051 357.66 151.992 357.883 151.98V147.129C357.648 147.105 357.332 147.053 356.934 146.971C356.547 146.889 355.99 146.725 355.264 146.479C354.537 146.221 353.559 145.84 352.328 145.336C351.109 144.832 349.551 144.152 347.652 143.297V139.078L364.422 148.465V150.609L347.652 160.031ZM310.281 151.207V147.902H358.832V151.207H310.281Z" fill="#414141"/>
<path d="M22.5059 37.8311V22.8369H29.6426V24.7002H24.3691V37.8311H22.5059ZM27.7793 24.7002V22.8369H40.1895V24.7002H27.7793ZM38.3262 24.7002V22.8369H50.7363V24.7002H38.3262ZM48.873 24.7002V22.8369H61.2832V24.7002H48.873ZM59.4199 24.7002V22.8369H71.8301V24.7002H59.4199ZM69.9668 24.7002V22.8369H82.377V24.7002H69.9668ZM80.5137 24.7002V22.8369H92.9238V24.7002H80.5137ZM91.0605 24.7002V22.8369H103.471V24.7002H91.0605ZM106.881 37.8311V24.7002H101.607V22.8369H114.018V24.7002H108.744V37.8311H106.881ZM112.154 24.7002V22.8369H124.564V24.7002H112.154ZM122.701 24.7002V22.8369H135.111V24.7002H122.701ZM133.248 24.7002V22.8369H145.658V24.7002H133.248ZM143.795 24.7002V22.8369H156.205V24.7002H143.795ZM154.342 24.7002V22.8369H166.752V24.7002H154.342ZM164.889 24.7002V22.8369H177.299V24.7002H164.889ZM175.436 24.7002V22.8369H187.846V24.7002H175.436ZM191.256 37.8311V24.7002H185.982V22.8369H198.393V24.7002H193.119V37.8311H191.256ZM196.529 24.7002V22.8369H208.939V24.7002H196.529ZM207.076 24.7002V22.8369H219.486V24.7002H207.076ZM217.623 24.7002V22.8369H230.033V24.7002H217.623ZM228.17 24.7002V22.8369H240.58V24.7002H228.17ZM238.717 24.7002V22.8369H251.127V24.7002H238.717ZM249.264 24.7002V22.8369H261.674V24.7002H249.264ZM259.811 24.7002V22.8369H272.221V24.7002H259.811ZM275.631 37.8311V24.7002H270.357V22.8369H277.494V37.8311H275.631ZM22.5059 58.8311V30.7061H24.3691V58.8311H22.5059ZM106.881 58.8311V30.7061H108.744V58.8311H106.881ZM129.029 51.1758C127.682 51.1758 126.639 50.8564 125.9 50.2178C125.162 49.5732 124.793 48.668 124.793 47.502H126.674C126.674 48.1523 126.879 48.6592 127.289 49.0225C127.699 49.3799 128.285 49.5586 129.047 49.5586C129.785 49.5586 130.356 49.333 130.761 48.8818C131.165 48.4307 131.367 47.7949 131.367 46.9746C131.367 46.1719 131.145 45.5508 130.699 45.1113C130.26 44.666 129.639 44.4434 128.836 44.4434C128.016 44.4434 127.248 44.6367 126.533 45.0234L126.691 43.5293C127.154 43.2656 127.614 43.0898 128.071 43.002C128.528 42.9082 128.988 42.8613 129.451 42.8613C130.658 42.8613 131.593 43.2188 132.255 43.9336C132.917 44.6484 133.248 45.6621 133.248 46.9746C133.248 47.8652 133.081 48.624 132.747 49.251C132.419 49.8779 131.941 50.3555 131.314 50.6836C130.688 51.0117 129.926 51.1758 129.029 51.1758ZM125.549 45.0234L125.725 38.5195H127.57L127.271 43.9336L126.533 45.0234H125.549ZM126.568 40.1543L126.41 38.5195H132.457V40.1543H126.568ZM146.238 51V49.0312C148.166 47.9648 149.604 46.8516 150.554 45.6914C151.509 44.5312 151.986 43.3359 151.986 42.1055C151.986 41.3906 151.811 40.8545 151.459 40.4971C151.107 40.1396 150.574 39.9609 149.859 39.9609C149.385 39.9609 148.89 40.0986 148.374 40.374C147.858 40.6494 147.416 41.0156 147.047 41.4727L145.834 40.2686C146.238 39.6885 146.812 39.2227 147.557 38.8711C148.301 38.5195 149.08 38.3438 149.895 38.3438C151.213 38.3438 152.197 38.6572 152.848 39.2842C153.504 39.9053 153.832 40.8457 153.832 42.1055C153.832 43.3711 153.431 44.5869 152.628 45.7529C151.831 46.9131 150.615 48.0293 148.98 49.1016V51H146.238ZM146.766 51V49.3652H154.359V51H146.766ZM191.256 58.8311V30.7061H193.119V58.8311H191.256ZM275.631 58.8311V30.7061H277.494V58.8311H275.631ZM22.5059 79.8311V51.7061H24.3691V79.8311H22.5059ZM106.881 79.8311V51.7061H108.744V79.8311H106.881ZM169.749 72L174.038 59.5195H175.963L171.674 72H169.749ZM166.805 63.8965V59.7832H168.615V63.8965H166.805ZM166.805 61.1895V59.5195H175.963L174.715 61.1895H166.805ZM191.256 79.8311V51.7061H193.119V79.8311H191.256ZM234.375 72.1758C233.021 72.1758 231.973 71.8623 231.229 71.2354C230.49 70.6025 230.121 69.7148 230.121 68.5723C230.121 67.5234 230.49 66.7148 231.229 66.1465C231.973 65.5723 233.021 65.2852 234.375 65.2852C235.729 65.2852 236.774 65.5723 237.513 66.1465C238.257 66.7148 238.629 67.5234 238.629 68.5723C238.629 69.7148 238.257 70.6025 237.513 71.2354C236.774 71.8623 235.729 72.1758 234.375 72.1758ZM234.375 70.5586C235.131 70.5586 235.714 70.377 236.124 70.0137C236.54 69.6504 236.748 69.1406 236.748 68.4844C236.748 67.7812 236.54 67.2334 236.124 66.8408C235.714 66.4482 235.131 66.252 234.375 66.252C233.619 66.252 233.033 66.4482 232.617 66.8408C232.207 67.2334 232.002 67.7812 232.002 68.4844C232.002 69.1406 232.207 69.6504 232.617 70.0137C233.033 70.377 233.619 70.5586 234.375 70.5586ZM232.916 65.7949V64.8984H235.852V65.7949H232.916ZM234.375 64.5645C235.02 64.5645 235.518 64.415 235.869 64.1162C236.221 63.8115 236.396 63.3926 236.396 62.8594C236.396 62.25 236.221 61.7812 235.869 61.4531C235.518 61.125 235.02 60.9609 234.375 60.9609C233.736 60.9609 233.238 61.125 232.881 61.4531C232.529 61.7812 232.354 62.25 232.354 62.8594C232.354 63.3926 232.529 63.8115 232.881 64.1162C233.238 64.415 233.736 64.5645 234.375 64.5645ZM234.375 65.4434C233.139 65.4434 232.178 65.1885 231.492 64.6787C230.812 64.1631 230.473 63.4395 230.473 62.5078C230.473 61.5059 230.812 60.7295 231.492 60.1787C232.178 59.6221 233.139 59.3438 234.375 59.3438C235.617 59.3438 236.578 59.6221 237.258 60.1787C237.938 60.7295 238.277 61.5059 238.277 62.5078C238.277 63.4395 237.938 64.1631 237.258 64.6787C236.578 65.1885 235.617 65.4434 234.375 65.4434ZM275.631 79.8311V51.7061H277.494V79.8311H275.631ZM22.5059 100.831V72.7061H24.3691V100.831H22.5059ZM62.9268 90.1436L61.3887 88.377V87.6035C61.3887 85.3301 61.9922 83.6016 63.1992 82.418C64.4121 81.2344 66.2578 80.584 68.7363 80.4668L68.9121 82.1367C65.1973 82.2949 63.3398 83.9648 63.3398 87.1465L62.9268 90.1436ZM65.7832 93.1758C64.377 93.1758 63.293 92.7598 62.5312 91.9277C61.7695 91.0898 61.3887 89.9062 61.3887 88.377L62.8477 89.4141V87.1289H63.498C63.6738 86.4785 64.0225 85.9775 64.5439 85.626C65.0713 85.2686 65.7129 85.0898 66.4688 85.0898C67.5586 85.0898 68.3994 85.4268 68.9912 86.1006C69.583 86.7744 69.8789 87.7266 69.8789 88.957C69.8789 90.293 69.5244 91.3301 68.8154 92.0684C68.1064 92.8066 67.0957 93.1758 65.7832 93.1758ZM65.8008 91.5586C66.4863 91.5586 67.0137 91.333 67.3828 90.8818C67.7578 90.4248 67.9453 89.7832 67.9453 88.957C67.9453 88.2363 67.749 87.6826 67.3564 87.2959C66.9697 86.9033 66.4102 86.707 65.6777 86.707C64.9277 86.707 64.3477 86.918 63.9375 87.3398C63.5273 87.7617 63.3223 88.3594 63.3223 89.1328C63.3223 89.9414 63.5303 90.5479 63.9463 90.9521C64.3623 91.3564 64.9805 91.5586 65.8008 91.5586ZM106.881 100.831V72.7061H108.744V100.831H106.881ZM191.256 100.831V72.7061H193.119V100.831H191.256ZM229.752 90.2051L231.51 81.2227H233.32L231.545 90.2051H229.752ZM229.752 90.2051L230.982 88.6582H236.168V90.2051H229.752ZM237.592 90.2051V88.6582H238.945V90.2051H237.592ZM235.992 93V80.5195H237.768V93H235.992ZM275.631 100.831V72.7061H277.494V100.831H275.631ZM22.5059 121.831V93.7061H24.3691V106.837H29.6426V108.7H24.3691V121.831H22.5059ZM27.7793 108.7V106.837H40.1895V108.7H27.7793ZM38.3262 108.7V106.837H50.7363V108.7H38.3262ZM48.873 108.7V106.837H61.2832V108.7H48.873ZM59.4199 108.7V106.837H71.8301V108.7H59.4199ZM69.9668 108.7V106.837H82.377V108.7H69.9668ZM80.5137 108.7V106.837H92.9238V108.7H80.5137ZM91.0605 108.7V106.837H103.471V108.7H91.0605ZM106.881 121.831V108.7H101.607V106.837H106.881V93.7061H108.744V106.837H114.018V108.7H108.744V121.831H106.881ZM112.154 108.7V106.837H124.564V108.7H112.154ZM122.701 108.7V106.837H135.111V108.7H122.701ZM133.248 108.7V106.837H145.658V108.7H133.248ZM143.795 108.7V106.837H156.205V108.7H143.795ZM154.342 108.7V106.837H166.752V108.7H154.342ZM164.889 108.7V106.837H177.299V108.7H164.889ZM175.436 108.7V106.837H187.846V108.7H175.436ZM191.256 121.831V108.7H185.982V106.837H191.256V93.7061H193.119V106.837H198.393V108.7H193.119V121.831H191.256ZM196.529 108.7V106.837H208.939V108.7H196.529ZM207.076 108.7V106.837H219.486V108.7H207.076ZM217.623 108.7V106.837H230.033V108.7H217.623ZM228.17 108.7V106.837H240.58V108.7H228.17ZM238.717 108.7V106.837H251.127V108.7H238.717ZM249.264 108.7V106.837H261.674V108.7H249.264ZM259.811 108.7V106.837H272.221V108.7H259.811ZM275.631 121.831V108.7H270.357V106.837H275.631V93.7061H277.494V121.831H275.631ZM22.5059 142.831V114.706H24.3691V142.831H22.5059ZM106.881 142.831V114.706H108.744V142.831H106.881ZM128.15 135.176C127.506 135.176 126.914 135.138 126.375 135.062C125.842 134.985 125.367 134.883 124.951 134.754L125.171 133.075C125.528 133.175 125.93 133.28 126.375 133.392C126.826 133.503 127.395 133.559 128.08 133.559C128.982 133.559 129.683 133.377 130.181 133.014C130.679 132.65 130.928 132.141 130.928 131.484C130.928 131.016 130.784 130.617 130.497 130.289C130.21 129.961 129.791 129.712 129.24 129.542C128.695 129.372 128.033 129.287 127.254 129.287H126.973L126.762 128.145L129.451 128.355C130.447 128.432 131.256 128.757 131.877 129.331C132.498 129.899 132.809 130.676 132.809 131.66C132.809 132.773 132.401 133.638 131.587 134.253C130.778 134.868 129.633 135.176 128.15 135.176ZM126.973 129.287L126.762 128.145C127.676 128.021 128.42 127.84 128.994 127.6C129.568 127.359 129.99 127.069 130.26 126.729C130.529 126.384 130.664 126 130.664 125.578C130.664 125.068 130.5 124.673 130.172 124.392C129.85 124.104 129.387 123.961 128.783 123.961C128.338 123.961 127.863 124.072 127.359 124.295C126.861 124.518 126.39 124.852 125.944 125.297L124.731 124.093C125.271 123.483 125.895 123.041 126.604 122.766C127.312 122.484 128.104 122.344 128.977 122.344C130.113 122.344 130.992 122.587 131.613 123.073C132.234 123.554 132.545 124.242 132.545 125.139C132.545 125.889 132.305 126.542 131.824 127.099C131.344 127.649 130.717 128.027 129.943 128.232V129.287H126.973ZM191.256 142.831V114.706H193.119V142.831H191.256ZM252.375 135.053L252.199 133.383C255.914 133.225 257.771 131.555 257.771 128.373V124.91L259.723 127.143V127.564C259.723 129.943 259.116 131.757 257.903 133.005C256.696 134.247 254.854 134.93 252.375 135.053ZM255.434 128.812C256.184 128.812 256.761 128.602 257.165 128.18C257.569 127.758 257.771 127.16 257.771 126.387C257.771 125.578 257.566 124.972 257.156 124.567C256.746 124.163 256.131 123.961 255.311 123.961C254.607 123.961 254.065 124.189 253.685 124.646C253.304 125.098 253.113 125.736 253.113 126.562C253.113 127.283 253.312 127.84 253.711 128.232C254.115 128.619 254.689 128.812 255.434 128.812ZM254.643 130.43C253.553 130.43 252.712 130.093 252.12 129.419C251.528 128.745 251.232 127.793 251.232 126.562C251.232 125.227 251.587 124.189 252.296 123.451C253.011 122.713 254.021 122.344 255.328 122.344C256.734 122.344 257.818 122.763 258.58 123.601C259.342 124.433 259.723 125.613 259.723 127.143L258.264 126.105V128.391H257.613C257.438 129.041 257.086 129.545 256.559 129.902C256.037 130.254 255.398 130.43 254.643 130.43ZM275.631 142.831V114.706H277.494V142.831H275.631ZM22.5059 163.831V135.706H24.3691V163.831H22.5059ZM65.625 156.176C64.2715 156.176 63.2227 155.862 62.4785 155.235C61.7402 154.603 61.3711 153.715 61.3711 152.572C61.3711 151.523 61.7402 150.715 62.4785 150.146C63.2227 149.572 64.2715 149.285 65.625 149.285C66.9785 149.285 68.0244 149.572 68.7627 150.146C69.5068 150.715 69.8789 151.523 69.8789 152.572C69.8789 153.715 69.5068 154.603 68.7627 155.235C68.0244 155.862 66.9785 156.176 65.625 156.176ZM65.625 154.559C66.3809 154.559 66.9639 154.377 67.374 154.014C67.79 153.65 67.998 153.141 67.998 152.484C67.998 151.781 67.79 151.233 67.374 150.841C66.9639 150.448 66.3809 150.252 65.625 150.252C64.8691 150.252 64.2832 150.448 63.8672 150.841C63.457 151.233 63.252 151.781 63.252 152.484C63.252 153.141 63.457 153.65 63.8672 154.014C64.2832 154.377 64.8691 154.559 65.625 154.559ZM64.166 149.795V148.898H67.1016V149.795H64.166ZM65.625 148.564C66.2695 148.564 66.7676 148.415 67.1191 148.116C67.4707 147.812 67.6465 147.393 67.6465 146.859C67.6465 146.25 67.4707 145.781 67.1191 145.453C66.7676 145.125 66.2695 144.961 65.625 144.961C64.9863 144.961 64.4883 145.125 64.1309 145.453C63.7793 145.781 63.6035 146.25 63.6035 146.859C63.6035 147.393 63.7793 147.812 64.1309 148.116C64.4883 148.415 64.9863 148.564 65.625 148.564ZM65.625 149.443C64.3887 149.443 63.4277 149.188 62.7422 148.679C62.0625 148.163 61.7227 147.439 61.7227 146.508C61.7227 145.506 62.0625 144.729 62.7422 144.179C63.4277 143.622 64.3887 143.344 65.625 143.344C66.8672 143.344 67.8281 143.622 68.5078 144.179C69.1875 144.729 69.5273 145.506 69.5273 146.508C69.5273 147.439 69.1875 148.163 68.5078 148.679C67.8281 149.188 66.8672 149.443 65.625 149.443ZM106.881 163.831V135.706H108.744V163.831H106.881ZM168.396 153.144L166.857 151.377V150.604C166.857 148.33 167.461 146.602 168.668 145.418C169.881 144.234 171.727 143.584 174.205 143.467L174.381 145.137C170.666 145.295 168.809 146.965 168.809 150.146L168.396 153.144ZM171.252 156.176C169.846 156.176 168.762 155.76 168 154.928C167.238 154.09 166.857 152.906 166.857 151.377L168.316 152.414V150.129H168.967C169.143 149.479 169.491 148.978 170.013 148.626C170.54 148.269 171.182 148.09 171.938 148.09C173.027 148.09 173.868 148.427 174.46 149.101C175.052 149.774 175.348 150.727 175.348 151.957C175.348 153.293 174.993 154.33 174.284 155.068C173.575 155.807 172.564 156.176 171.252 156.176ZM171.27 154.559C171.955 154.559 172.482 154.333 172.852 153.882C173.227 153.425 173.414 152.783 173.414 151.957C173.414 151.236 173.218 150.683 172.825 150.296C172.438 149.903 171.879 149.707 171.146 149.707C170.396 149.707 169.816 149.918 169.406 150.34C168.996 150.762 168.791 151.359 168.791 152.133C168.791 152.941 168.999 153.548 169.415 153.952C169.831 154.356 170.449 154.559 171.27 154.559ZM191.256 163.831V135.706H193.119V163.831H191.256ZM275.631 163.831V135.706H277.494V163.831H275.631ZM22.5059 184.831V156.706H24.3691V184.831H22.5059ZM106.881 184.831V156.706H108.744V184.831H106.881ZM191.256 184.831V156.706H193.119V184.831H191.256ZM255.592 177.176C254.244 177.176 253.201 176.856 252.463 176.218C251.725 175.573 251.355 174.668 251.355 173.502H253.236C253.236 174.152 253.441 174.659 253.852 175.022C254.262 175.38 254.848 175.559 255.609 175.559C256.348 175.559 256.919 175.333 257.323 174.882C257.728 174.431 257.93 173.795 257.93 172.975C257.93 172.172 257.707 171.551 257.262 171.111C256.822 170.666 256.201 170.443 255.398 170.443C254.578 170.443 253.811 170.637 253.096 171.023L253.254 169.529C253.717 169.266 254.177 169.09 254.634 169.002C255.091 168.908 255.551 168.861 256.014 168.861C257.221 168.861 258.155 169.219 258.817 169.934C259.479 170.648 259.811 171.662 259.811 172.975C259.811 173.865 259.644 174.624 259.31 175.251C258.981 175.878 258.504 176.355 257.877 176.684C257.25 177.012 256.488 177.176 255.592 177.176ZM252.111 171.023L252.287 164.52H254.133L253.834 169.934L253.096 171.023H252.111ZM253.131 166.154L252.973 164.52H259.02V166.154H253.131ZM275.631 184.831V156.706H277.494V184.831H275.631ZM22.5059 205.831V177.706H24.3691V190.837H29.6426V192.7H24.3691V205.831H22.5059ZM27.7793 192.7V190.837H40.1895V192.7H27.7793ZM38.3262 192.7V190.837H50.7363V192.7H38.3262ZM48.873 192.7V190.837H61.2832V192.7H48.873ZM59.4199 192.7V190.837H71.8301V192.7H59.4199ZM69.9668 192.7V190.837H82.377V192.7H69.9668ZM80.5137 192.7V190.837H92.9238V192.7H80.5137ZM91.0605 192.7V190.837H103.471V192.7H91.0605ZM106.881 205.831V192.7H101.607V190.837H106.881V177.706H108.744V190.837H114.018V192.7H108.744V205.831H106.881ZM112.154 192.7V190.837H124.564V192.7H112.154ZM122.701 192.7V190.837H135.111V192.7H122.701ZM133.248 192.7V190.837H145.658V192.7H133.248ZM143.795 192.7V190.837H156.205V192.7H143.795ZM154.342 192.7V190.837H166.752V192.7H154.342ZM164.889 192.7V190.837H177.299V192.7H164.889ZM175.436 192.7V190.837H187.846V192.7H175.436ZM191.256 205.831V192.7H185.982V190.837H191.256V177.706H193.119V190.837H198.393V192.7H193.119V205.831H191.256ZM196.529 192.7V190.837H208.939V192.7H196.529ZM207.076 192.7V190.837H219.486V192.7H207.076ZM217.623 192.7V190.837H230.033V192.7H217.623ZM228.17 192.7V190.837H240.58V192.7H228.17ZM238.717 192.7V190.837H251.127V192.7H238.717ZM249.264 192.7V190.837H261.674V192.7H249.264ZM259.811 192.7V190.837H272.221V192.7H259.811ZM275.631 205.831V192.7H270.357V190.837H275.631V177.706H277.494V205.831H275.631ZM22.5059 226.831V198.706H24.3691V226.831H22.5059ZM106.881 226.831V198.706H108.744V226.831H106.881ZM166.471 216.205L168.229 207.223H170.039L168.264 216.205H166.471ZM166.471 216.205L167.701 214.658H172.887V216.205H166.471ZM174.311 216.205V214.658H175.664V216.205H174.311ZM172.711 219V206.52H174.486V219H172.711ZM191.256 226.831V198.706H193.119V226.831H191.256ZM231.677 216.144L230.139 214.377V213.604C230.139 211.33 230.742 209.602 231.949 208.418C233.162 207.234 235.008 206.584 237.486 206.467L237.662 208.137C233.947 208.295 232.09 209.965 232.09 213.146L231.677 216.144ZM234.533 219.176C233.127 219.176 232.043 218.76 231.281 217.928C230.52 217.09 230.139 215.906 230.139 214.377L231.598 215.414V213.129H232.248C232.424 212.479 232.772 211.978 233.294 211.626C233.821 211.269 234.463 211.09 235.219 211.09C236.309 211.09 237.149 211.427 237.741 212.101C238.333 212.774 238.629 213.727 238.629 214.957C238.629 216.293 238.274 217.33 237.565 218.068C236.856 218.807 235.846 219.176 234.533 219.176ZM234.551 217.559C235.236 217.559 235.764 217.333 236.133 216.882C236.508 216.425 236.695 215.783 236.695 214.957C236.695 214.236 236.499 213.683 236.106 213.296C235.72 212.903 235.16 212.707 234.428 212.707C233.678 212.707 233.098 212.918 232.688 213.34C232.277 213.762 232.072 214.359 232.072 215.133C232.072 215.941 232.28 216.548 232.696 216.952C233.112 217.356 233.73 217.559 234.551 217.559ZM275.631 226.831V198.706H277.494V226.831H275.631ZM22.5059 247.831V219.706H24.3691V247.831H22.5059ZM85.9629 240.176C85.3184 240.176 84.7266 240.138 84.1875 240.062C83.6543 239.985 83.1797 239.883 82.7637 239.754L82.9834 238.075C83.3408 238.175 83.7422 238.28 84.1875 238.392C84.6387 238.503 85.207 238.559 85.8926 238.559C86.7949 238.559 87.4951 238.377 87.9932 238.014C88.4912 237.65 88.7402 237.141 88.7402 236.484C88.7402 236.016 88.5967 235.617 88.3096 235.289C88.0225 234.961 87.6035 234.712 87.0527 234.542C86.5078 234.372 85.8457 234.287 85.0664 234.287H84.7852L84.5742 233.145L87.2637 233.355C88.2598 233.432 89.0684 233.757 89.6895 234.331C90.3105 234.899 90.6211 235.676 90.6211 236.66C90.6211 237.773 90.2139 238.638 89.3994 239.253C88.5908 239.868 87.4453 240.176 85.9629 240.176ZM84.7852 234.287L84.5742 233.145C85.4883 233.021 86.2324 232.84 86.8066 232.6C87.3809 232.359 87.8027 232.069 88.0723 231.729C88.3418 231.384 88.4766 231 88.4766 230.578C88.4766 230.068 88.3125 229.673 87.9844 229.392C87.6621 229.104 87.1992 228.961 86.5957 228.961C86.1504 228.961 85.6758 229.072 85.1719 229.295C84.6738 229.518 84.2021 229.852 83.7568 230.297L82.5439 229.093C83.083 228.483 83.707 228.041 84.416 227.766C85.125 227.484 85.916 227.344 86.7891 227.344C87.9258 227.344 88.8047 227.587 89.4258 228.073C90.0469 228.554 90.3574 229.242 90.3574 230.139C90.3574 230.889 90.1172 231.542 89.6367 232.099C89.1562 232.649 88.5293 233.027 87.7559 233.232V234.287H84.7852ZM106.881 247.831V219.706H108.744V247.831H106.881ZM191.256 247.831V219.706H193.119V247.831H191.256ZM251.707 240V238.031C253.635 236.965 255.073 235.852 256.022 234.691C256.978 233.531 257.455 232.336 257.455 231.105C257.455 230.391 257.279 229.854 256.928 229.497C256.576 229.14 256.043 228.961 255.328 228.961C254.854 228.961 254.358 229.099 253.843 229.374C253.327 229.649 252.885 230.016 252.516 230.473L251.303 229.269C251.707 228.688 252.281 228.223 253.025 227.871C253.77 227.52 254.549 227.344 255.363 227.344C256.682 227.344 257.666 227.657 258.316 228.284C258.973 228.905 259.301 229.846 259.301 231.105C259.301 232.371 258.899 233.587 258.097 234.753C257.3 235.913 256.084 237.029 254.449 238.102V240H251.707ZM252.234 240V238.365H259.828V240H252.234ZM275.631 247.831V219.706H277.494V247.831H275.631ZM22.5059 268.831V240.706H24.3691V268.831H22.5059ZM41.4375 261.053L41.2617 259.383C44.9766 259.225 46.834 257.555 46.834 254.373V250.91L48.7852 253.143V253.564C48.7852 255.943 48.1787 257.757 46.9658 259.005C45.7588 260.247 43.916 260.93 41.4375 261.053ZM44.4961 254.812C45.2461 254.812 45.8232 254.602 46.2275 254.18C46.6318 253.758 46.834 253.16 46.834 252.387C46.834 251.578 46.6289 250.972 46.2188 250.567C45.8086 250.163 45.1934 249.961 44.373 249.961C43.6699 249.961 43.1279 250.189 42.7471 250.646C42.3662 251.098 42.1758 251.736 42.1758 252.562C42.1758 253.283 42.375 253.84 42.7734 254.232C43.1777 254.619 43.752 254.812 44.4961 254.812ZM43.7051 256.43C42.6152 256.43 41.7744 256.093 41.1826 255.419C40.5908 254.745 40.2949 253.793 40.2949 252.562C40.2949 251.227 40.6494 250.189 41.3584 249.451C42.0732 248.713 43.084 248.344 44.3906 248.344C45.7969 248.344 46.8809 248.763 47.6426 249.601C48.4043 250.433 48.7852 251.613 48.7852 253.143L47.3262 252.105V254.391H46.6758C46.5 255.041 46.1484 255.545 45.6211 255.902C45.0996 256.254 44.4609 256.43 43.7051 256.43ZM86.8418 261.176C85.4941 261.176 84.4512 260.856 83.7129 260.218C82.9746 259.573 82.6055 258.668 82.6055 257.502H84.4863C84.4863 258.152 84.6914 258.659 85.1016 259.022C85.5117 259.38 86.0977 259.559 86.8594 259.559C87.5977 259.559 88.1689 259.333 88.5732 258.882C88.9775 258.431 89.1797 257.795 89.1797 256.975C89.1797 256.172 88.957 255.551 88.5117 255.111C88.0723 254.666 87.4512 254.443 86.6484 254.443C85.8281 254.443 85.0605 254.637 84.3457 255.023L84.5039 253.529C84.9668 253.266 85.4268 253.09 85.8838 253.002C86.3408 252.908 86.8008 252.861 87.2637 252.861C88.4707 252.861 89.4053 253.219 90.0674 253.934C90.7295 254.648 91.0605 255.662 91.0605 256.975C91.0605 257.865 90.8936 258.624 90.5596 259.251C90.2314 259.878 89.7539 260.355 89.127 260.684C88.5 261.012 87.7383 261.176 86.8418 261.176ZM83.3613 255.023L83.5371 248.52H85.3828L85.084 253.934L84.3457 255.023H83.3613ZM84.3809 250.154L84.2227 248.52H90.2695V250.154H84.3809ZM106.881 268.831V240.706H108.744V268.831H106.881ZM191.256 268.831V240.706H193.119V268.831H191.256ZM275.631 268.831V240.706H277.494V268.831H275.631ZM22.5059 276.7V261.706H24.3691V274.837H29.6426V276.7H22.5059ZM27.7793 276.7V274.837H40.1895V276.7H27.7793ZM38.3262 276.7V274.837H50.7363V276.7H38.3262ZM48.873 276.7V274.837H61.2832V276.7H48.873ZM59.4199 276.7V274.837H71.8301V276.7H59.4199ZM69.9668 276.7V274.837H82.377V276.7H69.9668ZM80.5137 276.7V274.837H92.9238V276.7H80.5137ZM91.0605 276.7V274.837H103.471V276.7H91.0605ZM101.607 276.7V274.837H106.881V261.706H108.744V274.837H114.018V276.7H101.607ZM112.154 276.7V274.837H124.564V276.7H112.154ZM122.701 276.7V274.837H135.111V276.7H122.701ZM133.248 276.7V274.837H145.658V276.7H133.248ZM143.795 276.7V274.837H156.205V276.7H143.795ZM154.342 276.7V274.837H166.752V276.7H154.342ZM164.889 276.7V274.837H177.299V276.7H164.889ZM175.436 276.7V274.837H187.846V276.7H175.436ZM185.982 276.7V274.837H191.256V261.706H193.119V274.837H198.393V276.7H185.982ZM196.529 276.7V274.837H208.939V276.7H196.529ZM207.076 276.7V274.837H219.486V276.7H207.076ZM217.623 276.7V274.837H230.033V276.7H217.623ZM228.17 276.7V274.837H240.58V276.7H228.17ZM238.717 276.7V274.837H251.127V276.7H238.717ZM249.264 276.7V274.837H261.674V276.7H249.264ZM259.811 276.7V274.837H272.221V276.7H259.811ZM270.357 276.7V274.837H275.631V261.706H277.494V276.7H270.357Z" fill="#414141"/>
<path d="M398.506 37.8311V22.8369H405.643V24.7002H400.369V37.8311H398.506ZM403.779 24.7002V22.8369H416.189V24.7002H403.779ZM414.326 24.7002V22.8369H426.736V24.7002H414.326ZM424.873 24.7002V22.8369H437.283V24.7002H424.873ZM435.42 24.7002V22.8369H447.83V24.7002H435.42ZM445.967 24.7002V22.8369H458.377V24.7002H445.967ZM456.514 24.7002V22.8369H468.924V24.7002H456.514ZM467.061 24.7002V22.8369H479.471V24.7002H467.061ZM482.881 37.8311V24.7002H477.607V22.8369H490.018V24.7002H484.744V37.8311H482.881ZM488.154 24.7002V22.8369H500.564V24.7002H488.154ZM498.701 24.7002V22.8369H511.111V24.7002H498.701ZM509.248 24.7002V22.8369H521.658V24.7002H509.248ZM519.795 24.7002V22.8369H532.205V24.7002H519.795ZM530.342 24.7002V22.8369H542.752V24.7002H530.342ZM540.889 24.7002V22.8369H553.299V24.7002H540.889ZM551.436 24.7002V22.8369H563.846V24.7002H551.436ZM567.256 37.8311V24.7002H561.982V22.8369H574.393V24.7002H569.119V37.8311H567.256ZM572.529 24.7002V22.8369H584.939V24.7002H572.529ZM583.076 24.7002V22.8369H595.486V24.7002H583.076ZM593.623 24.7002V22.8369H606.033V24.7002H593.623ZM604.17 24.7002V22.8369H616.58V24.7002H604.17ZM614.717 24.7002V22.8369H627.127V24.7002H614.717ZM625.264 24.7002V22.8369H637.674V24.7002H625.264ZM635.811 24.7002V22.8369H648.221V24.7002H635.811ZM651.631 37.8311V24.7002H646.357V22.8369H653.494V37.8311H651.631ZM398.506 58.8311V30.7061H400.369V58.8311H398.506ZM415.908 48.2051L417.666 39.2227H419.477L417.701 48.2051H415.908ZM415.908 48.2051L417.139 46.6582H422.324V48.2051H415.908ZM423.748 48.2051V46.6582H425.102V48.2051H423.748ZM422.148 51V38.5195H423.924V51H422.148ZM440.869 51.1758C440.225 51.1758 439.633 51.1377 439.094 51.0615C438.561 50.9854 438.086 50.8828 437.67 50.7539L437.89 49.0752C438.247 49.1748 438.648 49.2803 439.094 49.3916C439.545 49.5029 440.113 49.5586 440.799 49.5586C441.701 49.5586 442.401 49.377 442.899 49.0137C443.397 48.6504 443.646 48.1406 443.646 47.4844C443.646 47.0156 443.503 46.6172 443.216 46.2891C442.929 45.9609 442.51 45.7119 441.959 45.542C441.414 45.3721 440.752 45.2871 439.973 45.2871H439.691L439.48 44.1445L442.17 44.3555C443.166 44.4316 443.975 44.7568 444.596 45.3311C445.217 45.8994 445.527 46.6758 445.527 47.6602C445.527 48.7734 445.12 49.6377 444.306 50.2529C443.497 50.8682 442.352 51.1758 440.869 51.1758ZM439.691 45.2871L439.48 44.1445C440.395 44.0215 441.139 43.8398 441.713 43.5996C442.287 43.3594 442.709 43.0693 442.979 42.7295C443.248 42.3838 443.383 42 443.383 41.5781C443.383 41.0684 443.219 40.6729 442.891 40.3916C442.568 40.1045 442.105 39.9609 441.502 39.9609C441.057 39.9609 440.582 40.0723 440.078 40.2949C439.58 40.5176 439.108 40.8516 438.663 41.2969L437.45 40.0928C437.989 39.4834 438.613 39.041 439.322 38.7656C440.031 38.4844 440.822 38.3438 441.695 38.3438C442.832 38.3438 443.711 38.5869 444.332 39.0732C444.953 39.5537 445.264 40.2422 445.264 41.1387C445.264 41.8887 445.023 42.542 444.543 43.0986C444.062 43.6494 443.436 44.0273 442.662 44.2324V45.2871H439.691ZM462.719 51.1758C461.365 51.1758 460.316 50.8623 459.572 50.2354C458.834 49.6025 458.465 48.7148 458.465 47.5723C458.465 46.5234 458.834 45.7148 459.572 45.1465C460.316 44.5723 461.365 44.2852 462.719 44.2852C464.072 44.2852 465.118 44.5723 465.856 45.1465C466.601 45.7148 466.973 46.5234 466.973 47.5723C466.973 48.7148 466.601 49.6025 465.856 50.2354C465.118 50.8623 464.072 51.1758 462.719 51.1758ZM462.719 49.5586C463.475 49.5586 464.058 49.377 464.468 49.0137C464.884 48.6504 465.092 48.1406 465.092 47.4844C465.092 46.7812 464.884 46.2334 464.468 45.8408C464.058 45.4482 463.475 45.252 462.719 45.252C461.963 45.252 461.377 45.4482 460.961 45.8408C460.551 46.2334 460.346 46.7812 460.346 47.4844C460.346 48.1406 460.551 48.6504 460.961 49.0137C461.377 49.377 461.963 49.5586 462.719 49.5586ZM461.26 44.7949V43.8984H464.195V44.7949H461.26ZM462.719 43.5645C463.363 43.5645 463.861 43.415 464.213 43.1162C464.564 42.8115 464.74 42.3926 464.74 41.8594C464.74 41.25 464.564 40.7812 464.213 40.4531C463.861 40.125 463.363 39.9609 462.719 39.9609C462.08 39.9609 461.582 40.125 461.225 40.4531C460.873 40.7812 460.697 41.25 460.697 41.8594C460.697 42.3926 460.873 42.8115 461.225 43.1162C461.582 43.415 462.08 43.5645 462.719 43.5645ZM462.719 44.4434C461.482 44.4434 460.521 44.1885 459.836 43.6787C459.156 43.1631 458.816 42.4395 458.816 41.5078C458.816 40.5059 459.156 39.7295 459.836 39.1787C460.521 38.6221 461.482 38.3438 462.719 38.3438C463.961 38.3438 464.922 38.6221 465.602 39.1787C466.281 39.7295 466.621 40.5059 466.621 41.5078C466.621 42.4395 466.281 43.1631 465.602 43.6787C464.922 44.1885 463.961 44.4434 462.719 44.4434ZM482.881 58.8311V30.7061H484.744V58.8311H482.881ZM505.029 51.1758C503.682 51.1758 502.639 50.8564 501.9 50.2178C501.162 49.5732 500.793 48.668 500.793 47.502H502.674C502.674 48.1523 502.879 48.6592 503.289 49.0225C503.699 49.3799 504.285 49.5586 505.047 49.5586C505.785 49.5586 506.356 49.333 506.761 48.8818C507.165 48.4307 507.367 47.7949 507.367 46.9746C507.367 46.1719 507.145 45.5508 506.699 45.1113C506.26 44.666 505.639 44.4434 504.836 44.4434C504.016 44.4434 503.248 44.6367 502.533 45.0234L502.691 43.5293C503.154 43.2656 503.614 43.0898 504.071 43.002C504.528 42.9082 504.988 42.8613 505.451 42.8613C506.658 42.8613 507.593 43.2188 508.255 43.9336C508.917 44.6484 509.248 45.6621 509.248 46.9746C509.248 47.8652 509.081 48.624 508.747 49.251C508.419 49.8779 507.941 50.3555 507.314 50.6836C506.688 51.0117 505.926 51.1758 505.029 51.1758ZM501.549 45.0234L501.725 38.5195H503.57L503.271 43.9336L502.533 45.0234H501.549ZM502.568 40.1543L502.41 38.5195H508.457V40.1543H502.568ZM522.238 51V49.0312C524.166 47.9648 525.604 46.8516 526.554 45.6914C527.509 44.5312 527.986 43.3359 527.986 42.1055C527.986 41.3906 527.811 40.8545 527.459 40.4971C527.107 40.1396 526.574 39.9609 525.859 39.9609C525.385 39.9609 524.89 40.0986 524.374 40.374C523.858 40.6494 523.416 41.0156 523.047 41.4727L521.834 40.2686C522.238 39.6885 522.812 39.2227 523.557 38.8711C524.301 38.5195 525.08 38.3438 525.895 38.3438C527.213 38.3438 528.197 38.6572 528.848 39.2842C529.504 39.9053 529.832 40.8457 529.832 42.1055C529.832 43.3711 529.431 44.5869 528.628 45.7529C527.831 46.9131 526.615 48.0293 524.98 49.1016V51H522.238ZM522.766 51V49.3652H530.359V51H522.766ZM546.426 51V38.5195H548.289V51H546.426ZM543.314 51V49.3652H546.602V51H543.314ZM548.113 51V49.3652H551.066V51H548.113ZM543.49 41.3496V39.5742L546.426 38.5195V40.3301L543.49 41.3496ZM567.256 58.8311V30.7061H569.119V58.8311H567.256ZM587.937 51L592.226 38.5195H594.15L589.861 51H587.937ZM584.992 42.8965V38.7832H586.803V42.8965H584.992ZM584.992 40.1895V38.5195H594.15L592.902 40.1895H584.992ZM607.281 51.0527L607.105 49.3828C610.82 49.2246 612.678 47.5547 612.678 44.373V40.9102L614.629 43.1426V43.5645C614.629 45.9434 614.022 47.7568 612.81 49.0049C611.603 50.2471 609.76 50.9297 607.281 51.0527ZM610.34 44.8125C611.09 44.8125 611.667 44.6016 612.071 44.1797C612.476 43.7578 612.678 43.1602 612.678 42.3867C612.678 41.5781 612.473 40.9717 612.062 40.5674C611.652 40.1631 611.037 39.9609 610.217 39.9609C609.514 39.9609 608.972 40.1895 608.591 40.6465C608.21 41.0977 608.02 41.7363 608.02 42.5625C608.02 43.2832 608.219 43.8398 608.617 44.2324C609.021 44.6191 609.596 44.8125 610.34 44.8125ZM609.549 46.4297C608.459 46.4297 607.618 46.0928 607.026 45.4189C606.435 44.7451 606.139 43.793 606.139 42.5625C606.139 41.2266 606.493 40.1895 607.202 39.4512C607.917 38.7129 608.928 38.3438 610.234 38.3438C611.641 38.3438 612.725 38.7627 613.486 39.6006C614.248 40.4326 614.629 41.6133 614.629 43.1426L613.17 42.1055V44.3906H612.52C612.344 45.041 611.992 45.5449 611.465 45.9023C610.943 46.2539 610.305 46.4297 609.549 46.4297ZM628.771 48.1436L627.232 46.377V45.6035C627.232 43.3301 627.836 41.6016 629.043 40.418C630.256 39.2344 632.102 38.584 634.58 38.4668L634.756 40.1367C631.041 40.2949 629.184 41.9648 629.184 45.1465L628.771 48.1436ZM631.627 51.1758C630.221 51.1758 629.137 50.7598 628.375 49.9277C627.613 49.0898 627.232 47.9062 627.232 46.377L628.691 47.4141V45.1289H629.342C629.518 44.4785 629.866 43.9775 630.388 43.626C630.915 43.2686 631.557 43.0898 632.312 43.0898C633.402 43.0898 634.243 43.4268 634.835 44.1006C635.427 44.7744 635.723 45.7266 635.723 46.957C635.723 48.293 635.368 49.3301 634.659 50.0684C633.95 50.8066 632.939 51.1758 631.627 51.1758ZM631.645 49.5586C632.33 49.5586 632.857 49.333 633.227 48.8818C633.602 48.4248 633.789 47.7832 633.789 46.957C633.789 46.2363 633.593 45.6826 633.2 45.2959C632.813 44.9033 632.254 44.707 631.521 44.707C630.771 44.707 630.191 44.918 629.781 45.3398C629.371 45.7617 629.166 46.3594 629.166 47.1328C629.166 47.9414 629.374 48.5479 629.79 48.9521C630.206 49.3564 630.824 49.5586 631.645 49.5586ZM651.631 58.8311V30.7061H653.494V58.8311H651.631ZM398.506 79.8311V51.7061H400.369V79.8311H398.506ZM419.863 72V59.5195H421.727V72H419.863ZM416.752 72V70.3652H420.039V72H416.752ZM421.551 72V70.3652H424.504V72H421.551ZM416.928 62.3496V60.5742L419.863 59.5195V61.3301L416.928 62.3496ZM441.748 72.1758C440.4 72.1758 439.357 71.8564 438.619 71.2178C437.881 70.5732 437.512 69.668 437.512 68.502H439.393C439.393 69.1523 439.598 69.6592 440.008 70.0225C440.418 70.3799 441.004 70.5586 441.766 70.5586C442.504 70.5586 443.075 70.333 443.479 69.8818C443.884 69.4307 444.086 68.7949 444.086 67.9746C444.086 67.1719 443.863 66.5508 443.418 66.1113C442.979 65.666 442.357 65.4434 441.555 65.4434C440.734 65.4434 439.967 65.6367 439.252 66.0234L439.41 64.5293C439.873 64.2656 440.333 64.0898 440.79 64.002C441.247 63.9082 441.707 63.8613 442.17 63.8613C443.377 63.8613 444.312 64.2188 444.974 64.9336C445.636 65.6484 445.967 66.6621 445.967 67.9746C445.967 68.8652 445.8 69.624 445.466 70.251C445.138 70.8779 444.66 71.3555 444.033 71.6836C443.406 72.0117 442.645 72.1758 441.748 72.1758ZM438.268 66.0234L438.443 59.5195H440.289L439.99 64.9336L439.252 66.0234H438.268ZM439.287 61.1543L439.129 59.5195H445.176V61.1543H439.287ZM459.625 72.0527L459.449 70.3828C463.164 70.2246 465.021 68.5547 465.021 65.373V61.9102L466.973 64.1426V64.5645C466.973 66.9434 466.366 68.7568 465.153 70.0049C463.946 71.2471 462.104 71.9297 459.625 72.0527ZM462.684 65.8125C463.434 65.8125 464.011 65.6016 464.415 65.1797C464.819 64.7578 465.021 64.1602 465.021 63.3867C465.021 62.5781 464.816 61.9717 464.406 61.5674C463.996 61.1631 463.381 60.9609 462.561 60.9609C461.857 60.9609 461.315 61.1895 460.935 61.6465C460.554 62.0977 460.363 62.7363 460.363 63.5625C460.363 64.2832 460.562 64.8398 460.961 65.2324C461.365 65.6191 461.939 65.8125 462.684 65.8125ZM461.893 67.4297C460.803 67.4297 459.962 67.0928 459.37 66.4189C458.778 65.7451 458.482 64.793 458.482 63.5625C458.482 62.2266 458.837 61.1895 459.546 60.4512C460.261 59.7129 461.271 59.3438 462.578 59.3438C463.984 59.3438 465.068 59.7627 465.83 60.6006C466.592 61.4326 466.973 62.6133 466.973 64.1426L465.514 63.1055V65.3906H464.863C464.688 66.041 464.336 66.5449 463.809 66.9023C463.287 67.2539 462.648 67.4297 461.893 67.4297ZM482.881 79.8311V51.7061H484.744V79.8311H482.881ZM502.208 69.1436L500.67 67.377V66.6035C500.67 64.3301 501.273 62.6016 502.48 61.418C503.693 60.2344 505.539 59.584 508.018 59.4668L508.193 61.1367C504.479 61.2949 502.621 62.9648 502.621 66.1465L502.208 69.1436ZM505.064 72.1758C503.658 72.1758 502.574 71.7598 501.812 70.9277C501.051 70.0898 500.67 68.9062 500.67 67.377L502.129 68.4141V66.1289H502.779C502.955 65.4785 503.304 64.9775 503.825 64.626C504.353 64.2686 504.994 64.0898 505.75 64.0898C506.84 64.0898 507.681 64.4268 508.272 65.1006C508.864 65.7744 509.16 66.7266 509.16 67.957C509.16 69.293 508.806 70.3301 508.097 71.0684C507.388 71.8066 506.377 72.1758 505.064 72.1758ZM505.082 70.5586C505.768 70.5586 506.295 70.333 506.664 69.8818C507.039 69.4248 507.227 68.7832 507.227 67.957C507.227 67.2363 507.03 66.6826 506.638 66.2959C506.251 65.9033 505.691 65.707 504.959 65.707C504.209 65.707 503.629 65.918 503.219 66.3398C502.809 66.7617 502.604 67.3594 502.604 68.1328C502.604 68.9414 502.812 69.5479 503.228 69.9521C503.644 70.3564 504.262 70.5586 505.082 70.5586ZM521.377 69.2051L523.135 60.2227H524.945L523.17 69.2051H521.377ZM521.377 69.2051L522.607 67.6582H527.793V69.2051H521.377ZM529.217 69.2051V67.6582H530.57V69.2051H529.217ZM527.617 72V59.5195H529.393V72H527.617ZM545.749 72L550.038 59.5195H551.963L547.674 72H545.749ZM542.805 63.8965V59.7832H544.615V63.8965H542.805ZM542.805 61.1895V59.5195H551.963L550.715 61.1895H542.805ZM567.256 79.8311V51.7061H569.119V79.8311H567.256ZM585.52 72V70.0312C587.447 68.9648 588.886 67.8516 589.835 66.6914C590.79 65.5312 591.268 64.3359 591.268 63.1055C591.268 62.3906 591.092 61.8545 590.74 61.4971C590.389 61.1396 589.855 60.9609 589.141 60.9609C588.666 60.9609 588.171 61.0986 587.655 61.374C587.14 61.6494 586.697 62.0156 586.328 62.4727L585.115 61.2686C585.52 60.6885 586.094 60.2227 586.838 59.8711C587.582 59.5195 588.361 59.3438 589.176 59.3438C590.494 59.3438 591.479 59.6572 592.129 60.2842C592.785 60.9053 593.113 61.8457 593.113 63.1055C593.113 64.3711 592.712 65.5869 591.909 66.7529C591.112 67.9131 589.896 69.0293 588.262 70.1016V72H585.52ZM586.047 72V70.3652H593.641V72H586.047ZM610.375 72.1758C609.021 72.1758 607.973 71.8623 607.229 71.2354C606.49 70.6025 606.121 69.7148 606.121 68.5723C606.121 67.5234 606.49 66.7148 607.229 66.1465C607.973 65.5723 609.021 65.2852 610.375 65.2852C611.729 65.2852 612.774 65.5723 613.513 66.1465C614.257 66.7148 614.629 67.5234 614.629 68.5723C614.629 69.7148 614.257 70.6025 613.513 71.2354C612.774 71.8623 611.729 72.1758 610.375 72.1758ZM610.375 70.5586C611.131 70.5586 611.714 70.377 612.124 70.0137C612.54 69.6504 612.748 69.1406 612.748 68.4844C612.748 67.7812 612.54 67.2334 612.124 66.8408C611.714 66.4482 611.131 66.252 610.375 66.252C609.619 66.252 609.033 66.4482 608.617 66.8408C608.207 67.2334 608.002 67.7812 608.002 68.4844C608.002 69.1406 608.207 69.6504 608.617 70.0137C609.033 70.377 609.619 70.5586 610.375 70.5586ZM608.916 65.7949V64.8984H611.852V65.7949H608.916ZM610.375 64.5645C611.02 64.5645 611.518 64.415 611.869 64.1162C612.221 63.8115 612.396 63.3926 612.396 62.8594C612.396 62.25 612.221 61.7812 611.869 61.4531C611.518 61.125 611.02 60.9609 610.375 60.9609C609.736 60.9609 609.238 61.125 608.881 61.4531C608.529 61.7812 608.354 62.25 608.354 62.8594C608.354 63.3926 608.529 63.8115 608.881 64.1162C609.238 64.415 609.736 64.5645 610.375 64.5645ZM610.375 65.4434C609.139 65.4434 608.178 65.1885 607.492 64.6787C606.812 64.1631 606.473 63.4395 606.473 62.5078C606.473 61.5059 606.812 60.7295 607.492 60.1787C608.178 59.6221 609.139 59.3438 610.375 59.3438C611.617 59.3438 612.578 59.6221 613.258 60.1787C613.938 60.7295 614.277 61.5059 614.277 62.5078C614.277 63.4395 613.938 64.1631 613.258 64.6787C612.578 65.1885 611.617 65.4434 610.375 65.4434ZM630.713 72.1758C630.068 72.1758 629.477 72.1377 628.938 72.0615C628.404 71.9854 627.93 71.8828 627.514 71.7539L627.733 70.0752C628.091 70.1748 628.492 70.2803 628.938 70.3916C629.389 70.5029 629.957 70.5586 630.643 70.5586C631.545 70.5586 632.245 70.377 632.743 70.0137C633.241 69.6504 633.49 69.1406 633.49 68.4844C633.49 68.0156 633.347 67.6172 633.06 67.2891C632.772 66.9609 632.354 66.7119 631.803 66.542C631.258 66.3721 630.596 66.2871 629.816 66.2871H629.535L629.324 65.1445L632.014 65.3555C633.01 65.4316 633.818 65.7568 634.439 66.3311C635.061 66.8994 635.371 67.6758 635.371 68.6602C635.371 69.7734 634.964 70.6377 634.149 71.2529C633.341 71.8682 632.195 72.1758 630.713 72.1758ZM629.535 66.2871L629.324 65.1445C630.238 65.0215 630.982 64.8398 631.557 64.5996C632.131 64.3594 632.553 64.0693 632.822 63.7295C633.092 63.3838 633.227 63 633.227 62.5781C633.227 62.0684 633.062 61.6729 632.734 61.3916C632.412 61.1045 631.949 60.9609 631.346 60.9609C630.9 60.9609 630.426 61.0723 629.922 61.2949C629.424 61.5176 628.952 61.8516 628.507 62.2969L627.294 61.0928C627.833 60.4834 628.457 60.041 629.166 59.7656C629.875 59.4844 630.666 59.3438 631.539 59.3438C632.676 59.3438 633.555 59.5869 634.176 60.0732C634.797 60.5537 635.107 61.2422 635.107 62.1387C635.107 62.8887 634.867 63.542 634.387 64.0986C633.906 64.6494 633.279 65.0273 632.506 65.2324V66.2871H629.535ZM651.631 79.8311V51.7061H653.494V79.8311H651.631ZM398.506 100.831V72.7061H400.369V100.831H398.506ZM416.77 93V91.0312C418.697 89.9648 420.136 88.8516 421.085 87.6914C422.04 86.5312 422.518 85.3359 422.518 84.1055C422.518 83.3906 422.342 82.8545 421.99 82.4971C421.639 82.1396 421.105 81.9609 420.391 81.9609C419.916 81.9609 419.421 82.0986 418.905 82.374C418.39 82.6494 417.947 83.0156 417.578 83.4727L416.365 82.2686C416.77 81.6885 417.344 81.2227 418.088 80.8711C418.832 80.5195 419.611 80.3438 420.426 80.3438C421.744 80.3438 422.729 80.6572 423.379 81.2842C424.035 81.9053 424.363 82.8457 424.363 84.1055C424.363 85.3711 423.962 86.5869 423.159 87.7529C422.362 88.9131 421.146 90.0293 419.512 91.1016V93H416.77ZM417.297 93V91.3652H424.891V93H417.297ZM438.927 90.1436L437.389 88.377V87.6035C437.389 85.3301 437.992 83.6016 439.199 82.418C440.412 81.2344 442.258 80.584 444.736 80.4668L444.912 82.1367C441.197 82.2949 439.34 83.9648 439.34 87.1465L438.927 90.1436ZM441.783 93.1758C440.377 93.1758 439.293 92.7598 438.531 91.9277C437.77 91.0898 437.389 89.9062 437.389 88.377L438.848 89.4141V87.1289H439.498C439.674 86.4785 440.022 85.9775 440.544 85.626C441.071 85.2686 441.713 85.0898 442.469 85.0898C443.559 85.0898 444.399 85.4268 444.991 86.1006C445.583 86.7744 445.879 87.7266 445.879 88.957C445.879 90.293 445.524 91.3301 444.815 92.0684C444.106 92.8066 443.096 93.1758 441.783 93.1758ZM441.801 91.5586C442.486 91.5586 443.014 91.333 443.383 90.8818C443.758 90.4248 443.945 89.7832 443.945 88.957C443.945 88.2363 443.749 87.6826 443.356 87.2959C442.97 86.9033 442.41 86.707 441.678 86.707C440.928 86.707 440.348 86.918 439.938 87.3398C439.527 87.7617 439.322 88.3594 439.322 89.1328C439.322 89.9414 439.53 90.5479 439.946 90.9521C440.362 91.3564 440.98 91.5586 441.801 91.5586ZM461.374 93L465.663 80.5195H467.588L463.299 93H461.374ZM458.43 84.8965V80.7832H460.24V84.8965H458.43ZM458.43 82.1895V80.5195H467.588L466.34 82.1895H458.43ZM482.881 100.831V72.7061H484.744V100.831H482.881ZM504.906 93.1758C503.553 93.1758 502.504 92.8623 501.76 92.2354C501.021 91.6025 500.652 90.7148 500.652 89.5723C500.652 88.5234 501.021 87.7148 501.76 87.1465C502.504 86.5723 503.553 86.2852 504.906 86.2852C506.26 86.2852 507.306 86.5723 508.044 87.1465C508.788 87.7148 509.16 88.5234 509.16 89.5723C509.16 90.7148 508.788 91.6025 508.044 92.2354C507.306 92.8623 506.26 93.1758 504.906 93.1758ZM504.906 91.5586C505.662 91.5586 506.245 91.377 506.655 91.0137C507.071 90.6504 507.279 90.1406 507.279 89.4844C507.279 88.7812 507.071 88.2334 506.655 87.8408C506.245 87.4482 505.662 87.252 504.906 87.252C504.15 87.252 503.564 87.4482 503.148 87.8408C502.738 88.2334 502.533 88.7812 502.533 89.4844C502.533 90.1406 502.738 90.6504 503.148 91.0137C503.564 91.377 504.15 91.5586 504.906 91.5586ZM503.447 86.7949V85.8984H506.383V86.7949H503.447ZM504.906 85.5645C505.551 85.5645 506.049 85.415 506.4 85.1162C506.752 84.8115 506.928 84.3926 506.928 83.8594C506.928 83.25 506.752 82.7812 506.4 82.4531C506.049 82.125 505.551 81.9609 504.906 81.9609C504.268 81.9609 503.77 82.125 503.412 82.4531C503.061 82.7812 502.885 83.25 502.885 83.8594C502.885 84.3926 503.061 84.8115 503.412 85.1162C503.77 85.415 504.268 85.5645 504.906 85.5645ZM504.906 86.4434C503.67 86.4434 502.709 86.1885 502.023 85.6787C501.344 85.1631 501.004 84.4395 501.004 83.5078C501.004 82.5059 501.344 81.7295 502.023 81.1787C502.709 80.6221 503.67 80.3438 504.906 80.3438C506.148 80.3438 507.109 80.6221 507.789 81.1787C508.469 81.7295 508.809 82.5059 508.809 83.5078C508.809 84.4395 508.469 85.1631 507.789 85.6787C507.109 86.1885 506.148 86.4434 504.906 86.4434ZM525.244 93.1758C524.6 93.1758 524.008 93.1377 523.469 93.0615C522.936 92.9854 522.461 92.8828 522.045 92.7539L522.265 91.0752C522.622 91.1748 523.023 91.2803 523.469 91.3916C523.92 91.5029 524.488 91.5586 525.174 91.5586C526.076 91.5586 526.776 91.377 527.274 91.0137C527.772 90.6504 528.021 90.1406 528.021 89.4844C528.021 89.0156 527.878 88.6172 527.591 88.2891C527.304 87.9609 526.885 87.7119 526.334 87.542C525.789 87.3721 525.127 87.2871 524.348 87.2871H524.066L523.855 86.1445L526.545 86.3555C527.541 86.4316 528.35 86.7568 528.971 87.3311C529.592 87.8994 529.902 88.6758 529.902 89.6602C529.902 90.7734 529.495 91.6377 528.681 92.2529C527.872 92.8682 526.727 93.1758 525.244 93.1758ZM524.066 87.2871L523.855 86.1445C524.77 86.0215 525.514 85.8398 526.088 85.5996C526.662 85.3594 527.084 85.0693 527.354 84.7295C527.623 84.3838 527.758 84 527.758 83.5781C527.758 83.0684 527.594 82.6729 527.266 82.3916C526.943 82.1045 526.48 81.9609 525.877 81.9609C525.432 81.9609 524.957 82.0723 524.453 82.2949C523.955 82.5176 523.483 82.8516 523.038 83.2969L521.825 82.0928C522.364 81.4834 522.988 81.041 523.697 80.7656C524.406 80.4844 525.197 80.3438 526.07 80.3438C527.207 80.3438 528.086 80.5869 528.707 81.0732C529.328 81.5537 529.639 82.2422 529.639 83.1387C529.639 83.8887 529.398 84.542 528.918 85.0986C528.438 85.6494 527.811 86.0273 527.037 86.2324V87.2871H524.066ZM544 93.0527L543.824 91.3828C547.539 91.2246 549.396 89.5547 549.396 86.373V82.9102L551.348 85.1426V85.5645C551.348 87.9434 550.741 89.7568 549.528 91.0049C548.321 92.2471 546.479 92.9297 544 93.0527ZM547.059 86.8125C547.809 86.8125 548.386 86.6016 548.79 86.1797C549.194 85.7578 549.396 85.1602 549.396 84.3867C549.396 83.5781 549.191 82.9717 548.781 82.5674C548.371 82.1631 547.756 81.9609 546.936 81.9609C546.232 81.9609 545.69 82.1895 545.31 82.6465C544.929 83.0977 544.738 83.7363 544.738 84.5625C544.738 85.2832 544.938 85.8398 545.336 86.2324C545.74 86.6191 546.314 86.8125 547.059 86.8125ZM546.268 88.4297C545.178 88.4297 544.337 88.0928 543.745 87.4189C543.153 86.7451 542.857 85.793 542.857 84.5625C542.857 83.2266 543.212 82.1895 543.921 81.4512C544.636 80.7129 545.646 80.3438 546.953 80.3438C548.359 80.3438 549.443 80.7627 550.205 81.6006C550.967 82.4326 551.348 83.6133 551.348 85.1426L549.889 84.1055V86.3906H549.238C549.062 87.041 548.711 87.5449 548.184 87.9023C547.662 88.2539 547.023 88.4297 546.268 88.4297ZM567.256 100.831V72.7061H569.119V100.831H567.256ZM589.404 93.1758C588.057 93.1758 587.014 92.8564 586.275 92.2178C585.537 91.5732 585.168 90.668 585.168 89.502H587.049C587.049 90.1523 587.254 90.6592 587.664 91.0225C588.074 91.3799 588.66 91.5586 589.422 91.5586C590.16 91.5586 590.731 91.333 591.136 90.8818C591.54 90.4307 591.742 89.7949 591.742 88.9746C591.742 88.1719 591.52 87.5508 591.074 87.1113C590.635 86.666 590.014 86.4434 589.211 86.4434C588.391 86.4434 587.623 86.6367 586.908 87.0234L587.066 85.5293C587.529 85.2656 587.989 85.0898 588.446 85.002C588.903 84.9082 589.363 84.8613 589.826 84.8613C591.033 84.8613 591.968 85.2188 592.63 85.9336C593.292 86.6484 593.623 87.6621 593.623 88.9746C593.623 89.8652 593.456 90.624 593.122 91.251C592.794 91.8779 592.316 92.3555 591.689 92.6836C591.062 93.0117 590.301 93.1758 589.404 93.1758ZM585.924 87.0234L586.1 80.5195H587.945L587.646 85.9336L586.908 87.0234H585.924ZM586.943 82.1543L586.785 80.5195H592.832V82.1543H586.943ZM605.752 90.2051L607.51 81.2227H609.32L607.545 90.2051H605.752ZM605.752 90.2051L606.982 88.6582H612.168V90.2051H605.752ZM613.592 90.2051V88.6582H614.945V90.2051H613.592ZM611.992 93V80.5195H613.768V93H611.992ZM630.801 93V80.5195H632.664V93H630.801ZM627.689 93V91.3652H630.977V93H627.689ZM632.488 93V91.3652H635.441V93H632.488ZM627.865 83.3496V81.5742L630.801 80.5195V82.3301L627.865 83.3496ZM651.631 100.831V72.7061H653.494V100.831H651.631ZM398.506 121.831V93.7061H400.369V106.837H405.643V108.7H400.369V121.831H398.506ZM403.779 108.7V106.837H416.189V108.7H403.779ZM414.326 108.7V106.837H426.736V108.7H414.326ZM424.873 108.7V106.837H437.283V108.7H424.873ZM435.42 108.7V106.837H447.83V108.7H435.42ZM445.967 108.7V106.837H458.377V108.7H445.967ZM456.514 108.7V106.837H468.924V108.7H456.514ZM467.061 108.7V106.837H479.471V108.7H467.061ZM482.881 121.831V108.7H477.607V106.837H482.881V93.7061H484.744V106.837H490.018V108.7H484.744V121.831H482.881ZM488.154 108.7V106.837H500.564V108.7H488.154ZM498.701 108.7V106.837H511.111V108.7H498.701ZM509.248 108.7V106.837H521.658V108.7H509.248ZM519.795 108.7V106.837H532.205V108.7H519.795ZM530.342 108.7V106.837H542.752V108.7H530.342ZM540.889 108.7V106.837H553.299V108.7H540.889ZM551.436 108.7V106.837H563.846V108.7H551.436ZM567.256 121.831V108.7H561.982V106.837H567.256V93.7061H569.119V106.837H574.393V108.7H569.119V121.831H567.256ZM572.529 108.7V106.837H584.939V108.7H572.529ZM583.076 108.7V106.837H595.486V108.7H583.076ZM593.623 108.7V106.837H606.033V108.7H593.623ZM604.17 108.7V106.837H616.58V108.7H604.17ZM614.717 108.7V106.837H627.127V108.7H614.717ZM625.264 108.7V106.837H637.674V108.7H625.264ZM635.811 108.7V106.837H648.221V108.7H635.811ZM651.631 121.831V108.7H646.357V106.837H651.631V93.7061H653.494V121.831H651.631ZM398.506 142.831V114.706H400.369V142.831H398.506ZM419.187 135L423.476 122.52H425.4L421.111 135H419.187ZM416.242 126.896V122.783H418.053V126.896H416.242ZM416.242 124.189V122.52H425.4L424.152 124.189H416.242ZM440.957 135V122.52H442.82V135H440.957ZM437.846 135V133.365H441.133V135H437.846ZM442.645 135V133.365H445.598V135H442.645ZM438.021 125.35V123.574L440.957 122.52V124.33L438.021 125.35ZM458.096 132.205L459.854 123.223H461.664L459.889 132.205H458.096ZM458.096 132.205L459.326 130.658H464.512V132.205H458.096ZM465.936 132.205V130.658H467.289V132.205H465.936ZM464.336 135V122.52H466.111V135H464.336ZM482.881 142.831V114.706H484.744V142.831H482.881ZM504.15 135.176C503.506 135.176 502.914 135.138 502.375 135.062C501.842 134.985 501.367 134.883 500.951 134.754L501.171 133.075C501.528 133.175 501.93 133.28 502.375 133.392C502.826 133.503 503.395 133.559 504.08 133.559C504.982 133.559 505.683 133.377 506.181 133.014C506.679 132.65 506.928 132.141 506.928 131.484C506.928 131.016 506.784 130.617 506.497 130.289C506.21 129.961 505.791 129.712 505.24 129.542C504.695 129.372 504.033 129.287 503.254 129.287H502.973L502.762 128.145L505.451 128.355C506.447 128.432 507.256 128.757 507.877 129.331C508.498 129.899 508.809 130.676 508.809 131.66C508.809 132.773 508.401 133.638 507.587 134.253C506.778 134.868 505.633 135.176 504.15 135.176ZM502.973 129.287L502.762 128.145C503.676 128.021 504.42 127.84 504.994 127.6C505.568 127.359 505.99 127.069 506.26 126.729C506.529 126.384 506.664 126 506.664 125.578C506.664 125.068 506.5 124.673 506.172 124.392C505.85 124.104 505.387 123.961 504.783 123.961C504.338 123.961 503.863 124.072 503.359 124.295C502.861 124.518 502.39 124.852 501.944 125.297L500.731 124.093C501.271 123.483 501.895 123.041 502.604 122.766C503.312 122.484 504.104 122.344 504.977 122.344C506.113 122.344 506.992 122.587 507.613 123.073C508.234 123.554 508.545 124.242 508.545 125.139C508.545 125.889 508.305 126.542 507.824 127.099C507.344 127.649 506.717 128.027 505.943 128.232V129.287H502.973ZM526 135.176C524.646 135.176 523.598 134.862 522.854 134.235C522.115 133.603 521.746 132.715 521.746 131.572C521.746 130.523 522.115 129.715 522.854 129.146C523.598 128.572 524.646 128.285 526 128.285C527.354 128.285 528.399 128.572 529.138 129.146C529.882 129.715 530.254 130.523 530.254 131.572C530.254 132.715 529.882 133.603 529.138 134.235C528.399 134.862 527.354 135.176 526 135.176ZM526 133.559C526.756 133.559 527.339 133.377 527.749 133.014C528.165 132.65 528.373 132.141 528.373 131.484C528.373 130.781 528.165 130.233 527.749 129.841C527.339 129.448 526.756 129.252 526 129.252C525.244 129.252 524.658 129.448 524.242 129.841C523.832 130.233 523.627 130.781 523.627 131.484C523.627 132.141 523.832 132.65 524.242 133.014C524.658 133.377 525.244 133.559 526 133.559ZM524.541 128.795V127.898H527.477V128.795H524.541ZM526 127.564C526.645 127.564 527.143 127.415 527.494 127.116C527.846 126.812 528.021 126.393 528.021 125.859C528.021 125.25 527.846 124.781 527.494 124.453C527.143 124.125 526.645 123.961 526 123.961C525.361 123.961 524.863 124.125 524.506 124.453C524.154 124.781 523.979 125.25 523.979 125.859C523.979 126.393 524.154 126.812 524.506 127.116C524.863 127.415 525.361 127.564 526 127.564ZM526 128.443C524.764 128.443 523.803 128.188 523.117 127.679C522.438 127.163 522.098 126.439 522.098 125.508C522.098 124.506 522.438 123.729 523.117 123.179C523.803 122.622 524.764 122.344 526 122.344C527.242 122.344 528.203 122.622 528.883 123.179C529.562 123.729 529.902 124.506 529.902 125.508C529.902 126.439 529.562 127.163 528.883 127.679C528.203 128.188 527.242 128.443 526 128.443ZM547.217 135.176C545.869 135.176 544.826 134.856 544.088 134.218C543.35 133.573 542.98 132.668 542.98 131.502H544.861C544.861 132.152 545.066 132.659 545.477 133.022C545.887 133.38 546.473 133.559 547.234 133.559C547.973 133.559 548.544 133.333 548.948 132.882C549.353 132.431 549.555 131.795 549.555 130.975C549.555 130.172 549.332 129.551 548.887 129.111C548.447 128.666 547.826 128.443 547.023 128.443C546.203 128.443 545.436 128.637 544.721 129.023L544.879 127.529C545.342 127.266 545.802 127.09 546.259 127.002C546.716 126.908 547.176 126.861 547.639 126.861C548.846 126.861 549.78 127.219 550.442 127.934C551.104 128.648 551.436 129.662 551.436 130.975C551.436 131.865 551.269 132.624 550.935 133.251C550.606 133.878 550.129 134.355 549.502 134.684C548.875 135.012 548.113 135.176 547.217 135.176ZM543.736 129.023L543.912 122.52H545.758L545.459 127.934L544.721 129.023H543.736ZM544.756 124.154L544.598 122.52H550.645V124.154H544.756ZM567.256 142.831V114.706H569.119V142.831H567.256ZM586.583 132.144L585.045 130.377V129.604C585.045 127.33 585.648 125.602 586.855 124.418C588.068 123.234 589.914 122.584 592.393 122.467L592.568 124.137C588.854 124.295 586.996 125.965 586.996 129.146L586.583 132.144ZM589.439 135.176C588.033 135.176 586.949 134.76 586.188 133.928C585.426 133.09 585.045 131.906 585.045 130.377L586.504 131.414V129.129H587.154C587.33 128.479 587.679 127.978 588.2 127.626C588.728 127.269 589.369 127.09 590.125 127.09C591.215 127.09 592.056 127.427 592.647 128.101C593.239 128.774 593.535 129.727 593.535 130.957C593.535 132.293 593.181 133.33 592.472 134.068C591.763 134.807 590.752 135.176 589.439 135.176ZM589.457 133.559C590.143 133.559 590.67 133.333 591.039 132.882C591.414 132.425 591.602 131.783 591.602 130.957C591.602 130.236 591.405 129.683 591.013 129.296C590.626 128.903 590.066 128.707 589.334 128.707C588.584 128.707 588.004 128.918 587.594 129.34C587.184 129.762 586.979 130.359 586.979 131.133C586.979 131.941 587.187 132.548 587.603 132.952C588.019 133.356 588.637 133.559 589.457 133.559ZM606.613 135V133.031C608.541 131.965 609.979 130.852 610.929 129.691C611.884 128.531 612.361 127.336 612.361 126.105C612.361 125.391 612.186 124.854 611.834 124.497C611.482 124.14 610.949 123.961 610.234 123.961C609.76 123.961 609.265 124.099 608.749 124.374C608.233 124.649 607.791 125.016 607.422 125.473L606.209 124.269C606.613 123.688 607.188 123.223 607.932 122.871C608.676 122.52 609.455 122.344 610.27 122.344C611.588 122.344 612.572 122.657 613.223 123.284C613.879 123.905 614.207 124.846 614.207 126.105C614.207 127.371 613.806 128.587 613.003 129.753C612.206 130.913 610.99 132.029 609.355 133.102V135H606.613ZM607.141 135V133.365H614.734V135H607.141ZM628.375 135.053L628.199 133.383C631.914 133.225 633.771 131.555 633.771 128.373V124.91L635.723 127.143V127.564C635.723 129.943 635.116 131.757 633.903 133.005C632.696 134.247 630.854 134.93 628.375 135.053ZM631.434 128.812C632.184 128.812 632.761 128.602 633.165 128.18C633.569 127.758 633.771 127.16 633.771 126.387C633.771 125.578 633.566 124.972 633.156 124.567C632.746 124.163 632.131 123.961 631.311 123.961C630.607 123.961 630.065 124.189 629.685 124.646C629.304 125.098 629.113 125.736 629.113 126.562C629.113 127.283 629.312 127.84 629.711 128.232C630.115 128.619 630.689 128.812 631.434 128.812ZM630.643 130.43C629.553 130.43 628.712 130.093 628.12 129.419C627.528 128.745 627.232 127.793 627.232 126.562C627.232 125.227 627.587 124.189 628.296 123.451C629.011 122.713 630.021 122.344 631.328 122.344C632.734 122.344 633.818 122.763 634.58 123.601C635.342 124.433 635.723 125.613 635.723 127.143L634.264 126.105V128.391H633.613C633.438 129.041 633.086 129.545 632.559 129.902C632.037 130.254 631.398 130.43 630.643 130.43ZM651.631 142.831V114.706H653.494V142.831H651.631ZM398.506 163.831V135.706H400.369V163.831H398.506ZM420.654 156.176C419.307 156.176 418.264 155.856 417.525 155.218C416.787 154.573 416.418 153.668 416.418 152.502H418.299C418.299 153.152 418.504 153.659 418.914 154.022C419.324 154.38 419.91 154.559 420.672 154.559C421.41 154.559 421.981 154.333 422.386 153.882C422.79 153.431 422.992 152.795 422.992 151.975C422.992 151.172 422.77 150.551 422.324 150.111C421.885 149.666 421.264 149.443 420.461 149.443C419.641 149.443 418.873 149.637 418.158 150.023L418.316 148.529C418.779 148.266 419.239 148.09 419.696 148.002C420.153 147.908 420.613 147.861 421.076 147.861C422.283 147.861 423.218 148.219 423.88 148.934C424.542 149.648 424.873 150.662 424.873 151.975C424.873 152.865 424.706 153.624 424.372 154.251C424.044 154.878 423.566 155.355 422.939 155.684C422.312 156.012 421.551 156.176 420.654 156.176ZM417.174 150.023L417.35 143.52H419.195L418.896 148.934L418.158 150.023H417.174ZM418.193 145.154L418.035 143.52H424.082V145.154H418.193ZM441.625 156.176C440.271 156.176 439.223 155.862 438.479 155.235C437.74 154.603 437.371 153.715 437.371 152.572C437.371 151.523 437.74 150.715 438.479 150.146C439.223 149.572 440.271 149.285 441.625 149.285C442.979 149.285 444.024 149.572 444.763 150.146C445.507 150.715 445.879 151.523 445.879 152.572C445.879 153.715 445.507 154.603 444.763 155.235C444.024 155.862 442.979 156.176 441.625 156.176ZM441.625 154.559C442.381 154.559 442.964 154.377 443.374 154.014C443.79 153.65 443.998 153.141 443.998 152.484C443.998 151.781 443.79 151.233 443.374 150.841C442.964 150.448 442.381 150.252 441.625 150.252C440.869 150.252 440.283 150.448 439.867 150.841C439.457 151.233 439.252 151.781 439.252 152.484C439.252 153.141 439.457 153.65 439.867 154.014C440.283 154.377 440.869 154.559 441.625 154.559ZM440.166 149.795V148.898H443.102V149.795H440.166ZM441.625 148.564C442.27 148.564 442.768 148.415 443.119 148.116C443.471 147.812 443.646 147.393 443.646 146.859C443.646 146.25 443.471 145.781 443.119 145.453C442.768 145.125 442.27 144.961 441.625 144.961C440.986 144.961 440.488 145.125 440.131 145.453C439.779 145.781 439.604 146.25 439.604 146.859C439.604 147.393 439.779 147.812 440.131 148.116C440.488 148.415 440.986 148.564 441.625 148.564ZM441.625 149.443C440.389 149.443 439.428 149.188 438.742 148.679C438.062 148.163 437.723 147.439 437.723 146.508C437.723 145.506 438.062 144.729 438.742 144.179C439.428 143.622 440.389 143.344 441.625 143.344C442.867 143.344 443.828 143.622 444.508 144.179C445.188 144.729 445.527 145.506 445.527 146.508C445.527 147.439 445.188 148.163 444.508 148.679C443.828 149.188 442.867 149.443 441.625 149.443ZM458.957 156V154.031C460.885 152.965 462.323 151.852 463.272 150.691C464.228 149.531 464.705 148.336 464.705 147.105C464.705 146.391 464.529 145.854 464.178 145.497C463.826 145.14 463.293 144.961 462.578 144.961C462.104 144.961 461.608 145.099 461.093 145.374C460.577 145.649 460.135 146.016 459.766 146.473L458.553 145.269C458.957 144.688 459.531 144.223 460.275 143.871C461.02 143.52 461.799 143.344 462.613 143.344C463.932 143.344 464.916 143.657 465.566 144.284C466.223 144.905 466.551 145.846 466.551 147.105C466.551 148.371 466.149 149.587 465.347 150.753C464.55 151.913 463.334 153.029 461.699 154.102V156H458.957ZM459.484 156V154.365H467.078V156H459.484ZM482.881 163.831V135.706H484.744V163.831H482.881ZM503.562 156L507.851 143.52H509.775L505.486 156H503.562ZM500.617 147.896V143.783H502.428V147.896H500.617ZM500.617 145.189V143.52H509.775L508.527 145.189H500.617ZM522.906 156.053L522.73 154.383C526.445 154.225 528.303 152.555 528.303 149.373V145.91L530.254 148.143V148.564C530.254 150.943 529.647 152.757 528.435 154.005C527.228 155.247 525.385 155.93 522.906 156.053ZM525.965 149.812C526.715 149.812 527.292 149.602 527.696 149.18C528.101 148.758 528.303 148.16 528.303 147.387C528.303 146.578 528.098 145.972 527.688 145.567C527.277 145.163 526.662 144.961 525.842 144.961C525.139 144.961 524.597 145.189 524.216 145.646C523.835 146.098 523.645 146.736 523.645 147.562C523.645 148.283 523.844 148.84 524.242 149.232C524.646 149.619 525.221 149.812 525.965 149.812ZM525.174 151.43C524.084 151.43 523.243 151.093 522.651 150.419C522.06 149.745 521.764 148.793 521.764 147.562C521.764 146.227 522.118 145.189 522.827 144.451C523.542 143.713 524.553 143.344 525.859 143.344C527.266 143.344 528.35 143.763 529.111 144.601C529.873 145.433 530.254 146.613 530.254 148.143L528.795 147.105V149.391H528.145C527.969 150.041 527.617 150.545 527.09 150.902C526.568 151.254 525.93 151.43 525.174 151.43ZM544.396 153.144L542.857 151.377V150.604C542.857 148.33 543.461 146.602 544.668 145.418C545.881 144.234 547.727 143.584 550.205 143.467L550.381 145.137C546.666 145.295 544.809 146.965 544.809 150.146L544.396 153.144ZM547.252 156.176C545.846 156.176 544.762 155.76 544 154.928C543.238 154.09 542.857 152.906 542.857 151.377L544.316 152.414V150.129H544.967C545.143 149.479 545.491 148.978 546.013 148.626C546.54 148.269 547.182 148.09 547.938 148.09C549.027 148.09 549.868 148.427 550.46 149.101C551.052 149.774 551.348 150.727 551.348 151.957C551.348 153.293 550.993 154.33 550.284 155.068C549.575 155.807 548.564 156.176 547.252 156.176ZM547.27 154.559C547.955 154.559 548.482 154.333 548.852 153.882C549.227 153.425 549.414 152.783 549.414 151.957C549.414 151.236 549.218 150.683 548.825 150.296C548.438 149.903 547.879 149.707 547.146 149.707C546.396 149.707 545.816 149.918 545.406 150.34C544.996 150.762 544.791 151.359 544.791 152.133C544.791 152.941 544.999 153.548 545.415 153.952C545.831 154.356 546.449 154.559 547.27 154.559ZM567.256 163.831V135.706H569.119V163.831H567.256ZM588.613 156V143.52H590.477V156H588.613ZM585.502 156V154.365H588.789V156H585.502ZM590.301 156V154.365H593.254V156H590.301ZM585.678 146.35V144.574L588.613 143.52V145.33L585.678 146.35ZM609.619 156.176C608.975 156.176 608.383 156.138 607.844 156.062C607.311 155.985 606.836 155.883 606.42 155.754L606.64 154.075C606.997 154.175 607.398 154.28 607.844 154.392C608.295 154.503 608.863 154.559 609.549 154.559C610.451 154.559 611.151 154.377 611.649 154.014C612.147 153.65 612.396 153.141 612.396 152.484C612.396 152.016 612.253 151.617 611.966 151.289C611.679 150.961 611.26 150.712 610.709 150.542C610.164 150.372 609.502 150.287 608.723 150.287H608.441L608.23 149.145L610.92 149.355C611.916 149.432 612.725 149.757 613.346 150.331C613.967 150.899 614.277 151.676 614.277 152.66C614.277 153.773 613.87 154.638 613.056 155.253C612.247 155.868 611.102 156.176 609.619 156.176ZM608.441 150.287L608.23 149.145C609.145 149.021 609.889 148.84 610.463 148.6C611.037 148.359 611.459 148.069 611.729 147.729C611.998 147.384 612.133 147 612.133 146.578C612.133 146.068 611.969 145.673 611.641 145.392C611.318 145.104 610.855 144.961 610.252 144.961C609.807 144.961 609.332 145.072 608.828 145.295C608.33 145.518 607.858 145.852 607.413 146.297L606.2 145.093C606.739 144.483 607.363 144.041 608.072 143.766C608.781 143.484 609.572 143.344 610.445 143.344C611.582 143.344 612.461 143.587 613.082 144.073C613.703 144.554 614.014 145.242 614.014 146.139C614.014 146.889 613.773 147.542 613.293 148.099C612.812 148.649 612.186 149.027 611.412 149.232V150.287H608.441ZM626.846 153.205L628.604 144.223H630.414L628.639 153.205H626.846ZM626.846 153.205L628.076 151.658H633.262V153.205H626.846ZM634.686 153.205V151.658H636.039V153.205H634.686ZM633.086 156V143.52H634.861V156H633.086ZM651.631 163.831V135.706H653.494V163.831H651.631ZM398.506 184.831V156.706H400.369V184.831H398.506ZM419.775 177.176C419.131 177.176 418.539 177.138 418 177.062C417.467 176.985 416.992 176.883 416.576 176.754L416.796 175.075C417.153 175.175 417.555 175.28 418 175.392C418.451 175.503 419.02 175.559 419.705 175.559C420.607 175.559 421.308 175.377 421.806 175.014C422.304 174.65 422.553 174.141 422.553 173.484C422.553 173.016 422.409 172.617 422.122 172.289C421.835 171.961 421.416 171.712 420.865 171.542C420.32 171.372 419.658 171.287 418.879 171.287H418.598L418.387 170.145L421.076 170.355C422.072 170.432 422.881 170.757 423.502 171.331C424.123 171.899 424.434 172.676 424.434 173.66C424.434 174.773 424.026 175.638 423.212 176.253C422.403 176.868 421.258 177.176 419.775 177.176ZM418.598 171.287L418.387 170.145C419.301 170.021 420.045 169.84 420.619 169.6C421.193 169.359 421.615 169.069 421.885 168.729C422.154 168.384 422.289 168 422.289 167.578C422.289 167.068 422.125 166.673 421.797 166.392C421.475 166.104 421.012 165.961 420.408 165.961C419.963 165.961 419.488 166.072 418.984 166.295C418.486 166.518 418.015 166.852 417.569 167.297L416.356 166.093C416.896 165.483 417.52 165.041 418.229 164.766C418.938 164.484 419.729 164.344 420.602 164.344C421.738 164.344 422.617 164.587 423.238 165.073C423.859 165.554 424.17 166.242 424.17 167.139C424.17 167.889 423.93 168.542 423.449 169.099C422.969 169.649 422.342 170.027 421.568 170.232V171.287H418.598ZM438.531 177.053L438.355 175.383C442.07 175.225 443.928 173.555 443.928 170.373V166.91L445.879 169.143V169.564C445.879 171.943 445.272 173.757 444.06 175.005C442.853 176.247 441.01 176.93 438.531 177.053ZM441.59 170.812C442.34 170.812 442.917 170.602 443.321 170.18C443.726 169.758 443.928 169.16 443.928 168.387C443.928 167.578 443.723 166.972 443.312 166.567C442.902 166.163 442.287 165.961 441.467 165.961C440.764 165.961 440.222 166.189 439.841 166.646C439.46 167.098 439.27 167.736 439.27 168.562C439.27 169.283 439.469 169.84 439.867 170.232C440.271 170.619 440.846 170.812 441.59 170.812ZM440.799 172.43C439.709 172.43 438.868 172.093 438.276 171.419C437.685 170.745 437.389 169.793 437.389 168.562C437.389 167.227 437.743 166.189 438.452 165.451C439.167 164.713 440.178 164.344 441.484 164.344C442.891 164.344 443.975 164.763 444.736 165.601C445.498 166.433 445.879 167.613 445.879 169.143L444.42 168.105V170.391H443.77C443.594 171.041 443.242 171.545 442.715 171.902C442.193 172.254 441.555 172.43 440.799 172.43ZM460.021 174.144L458.482 172.377V171.604C458.482 169.33 459.086 167.602 460.293 166.418C461.506 165.234 463.352 164.584 465.83 164.467L466.006 166.137C462.291 166.295 460.434 167.965 460.434 171.146L460.021 174.144ZM462.877 177.176C461.471 177.176 460.387 176.76 459.625 175.928C458.863 175.09 458.482 173.906 458.482 172.377L459.941 173.414V171.129H460.592C460.768 170.479 461.116 169.978 461.638 169.626C462.165 169.269 462.807 169.09 463.562 169.09C464.652 169.09 465.493 169.427 466.085 170.101C466.677 170.774 466.973 171.727 466.973 172.957C466.973 174.293 466.618 175.33 465.909 176.068C465.2 176.807 464.189 177.176 462.877 177.176ZM462.895 175.559C463.58 175.559 464.107 175.333 464.477 174.882C464.852 174.425 465.039 173.783 465.039 172.957C465.039 172.236 464.843 171.683 464.45 171.296C464.063 170.903 463.504 170.707 462.771 170.707C462.021 170.707 461.441 170.918 461.031 171.34C460.621 171.762 460.416 172.359 460.416 173.133C460.416 173.941 460.624 174.548 461.04 174.952C461.456 175.356 462.074 175.559 462.895 175.559ZM482.881 184.831V156.706H484.744V184.831H482.881ZM500.283 174.205L502.041 165.223H503.852L502.076 174.205H500.283ZM500.283 174.205L501.514 172.658H506.699V174.205H500.283ZM508.123 174.205V172.658H509.477V174.205H508.123ZM506.523 177V164.52H508.299V177H506.523ZM525.332 177V164.52H527.195V177H525.332ZM522.221 177V175.365H525.508V177H522.221ZM527.02 177V175.365H529.973V177H527.02ZM522.396 167.35V165.574L525.332 164.52V166.33L522.396 167.35ZM543.332 177V175.031C545.26 173.965 546.698 172.852 547.647 171.691C548.603 170.531 549.08 169.336 549.08 168.105C549.08 167.391 548.904 166.854 548.553 166.497C548.201 166.14 547.668 165.961 546.953 165.961C546.479 165.961 545.983 166.099 545.468 166.374C544.952 166.649 544.51 167.016 544.141 167.473L542.928 166.269C543.332 165.688 543.906 165.223 544.65 164.871C545.395 164.52 546.174 164.344 546.988 164.344C548.307 164.344 549.291 164.657 549.941 165.284C550.598 165.905 550.926 166.846 550.926 168.105C550.926 169.371 550.524 170.587 549.722 171.753C548.925 172.913 547.709 174.029 546.074 175.102V177H543.332ZM543.859 177V175.365H551.453V177H543.859ZM567.256 184.831V156.706H569.119V184.831H567.256ZM589.281 177.176C587.928 177.176 586.879 176.862 586.135 176.235C585.396 175.603 585.027 174.715 585.027 173.572C585.027 172.523 585.396 171.715 586.135 171.146C586.879 170.572 587.928 170.285 589.281 170.285C590.635 170.285 591.681 170.572 592.419 171.146C593.163 171.715 593.535 172.523 593.535 173.572C593.535 174.715 593.163 175.603 592.419 176.235C591.681 176.862 590.635 177.176 589.281 177.176ZM589.281 175.559C590.037 175.559 590.62 175.377 591.03 175.014C591.446 174.65 591.654 174.141 591.654 173.484C591.654 172.781 591.446 172.233 591.03 171.841C590.62 171.448 590.037 171.252 589.281 171.252C588.525 171.252 587.939 171.448 587.523 171.841C587.113 172.233 586.908 172.781 586.908 173.484C586.908 174.141 587.113 174.65 587.523 175.014C587.939 175.377 588.525 175.559 589.281 175.559ZM587.822 170.795V169.898H590.758V170.795H587.822ZM589.281 169.564C589.926 169.564 590.424 169.415 590.775 169.116C591.127 168.812 591.303 168.393 591.303 167.859C591.303 167.25 591.127 166.781 590.775 166.453C590.424 166.125 589.926 165.961 589.281 165.961C588.643 165.961 588.145 166.125 587.787 166.453C587.436 166.781 587.26 167.25 587.26 167.859C587.26 168.393 587.436 168.812 587.787 169.116C588.145 169.415 588.643 169.564 589.281 169.564ZM589.281 170.443C588.045 170.443 587.084 170.188 586.398 169.679C585.719 169.163 585.379 168.439 585.379 167.508C585.379 166.506 585.719 165.729 586.398 165.179C587.084 164.622 588.045 164.344 589.281 164.344C590.523 164.344 591.484 164.622 592.164 165.179C592.844 165.729 593.184 166.506 593.184 167.508C593.184 168.439 592.844 169.163 592.164 169.679C591.484 170.188 590.523 170.443 589.281 170.443ZM609.03 177L613.319 164.52H615.244L610.955 177H609.03ZM606.086 168.896V164.783H607.896V168.896H606.086ZM606.086 166.189V164.52H615.244L613.996 166.189H606.086ZM631.592 177.176C630.244 177.176 629.201 176.856 628.463 176.218C627.725 175.573 627.355 174.668 627.355 173.502H629.236C629.236 174.152 629.441 174.659 629.852 175.022C630.262 175.38 630.848 175.559 631.609 175.559C632.348 175.559 632.919 175.333 633.323 174.882C633.728 174.431 633.93 173.795 633.93 172.975C633.93 172.172 633.707 171.551 633.262 171.111C632.822 170.666 632.201 170.443 631.398 170.443C630.578 170.443 629.811 170.637 629.096 171.023L629.254 169.529C629.717 169.266 630.177 169.09 630.634 169.002C631.091 168.908 631.551 168.861 632.014 168.861C633.221 168.861 634.155 169.219 634.817 169.934C635.479 170.648 635.811 171.662 635.811 172.975C635.811 173.865 635.644 174.624 635.31 175.251C634.981 175.878 634.504 176.355 633.877 176.684C633.25 177.012 632.488 177.176 631.592 177.176ZM628.111 171.023L628.287 164.52H630.133L629.834 169.934L629.096 171.023H628.111ZM629.131 166.154L628.973 164.52H635.02V166.154H629.131ZM651.631 184.831V156.706H653.494V184.831H651.631ZM398.506 205.831V177.706H400.369V190.837H405.643V192.7H400.369V205.831H398.506ZM403.779 192.7V190.837H416.189V192.7H403.779ZM414.326 192.7V190.837H426.736V192.7H414.326ZM424.873 192.7V190.837H437.283V192.7H424.873ZM435.42 192.7V190.837H447.83V192.7H435.42ZM445.967 192.7V190.837H458.377V192.7H445.967ZM456.514 192.7V190.837H468.924V192.7H456.514ZM467.061 192.7V190.837H479.471V192.7H467.061ZM482.881 205.831V192.7H477.607V190.837H482.881V177.706H484.744V190.837H490.018V192.7H484.744V205.831H482.881ZM488.154 192.7V190.837H500.564V192.7H488.154ZM498.701 192.7V190.837H511.111V192.7H498.701ZM509.248 192.7V190.837H521.658V192.7H509.248ZM519.795 192.7V190.837H532.205V192.7H519.795ZM530.342 192.7V190.837H542.752V192.7H530.342ZM540.889 192.7V190.837H553.299V192.7H540.889ZM551.436 192.7V190.837H563.846V192.7H551.436ZM567.256 205.831V192.7H561.982V190.837H567.256V177.706H569.119V190.837H574.393V192.7H569.119V205.831H567.256ZM572.529 192.7V190.837H584.939V192.7H572.529ZM583.076 192.7V190.837H595.486V192.7H583.076ZM593.623 192.7V190.837H606.033V192.7H593.623ZM604.17 192.7V190.837H616.58V192.7H604.17ZM614.717 192.7V190.837H627.127V192.7H614.717ZM625.264 192.7V190.837H637.674V192.7H625.264ZM635.811 192.7V190.837H648.221V192.7H635.811ZM651.631 205.831V192.7H646.357V190.837H651.631V177.706H653.494V205.831H651.631ZM398.506 226.831V198.706H400.369V226.831H398.506ZM420.531 219.176C419.178 219.176 418.129 218.862 417.385 218.235C416.646 217.603 416.277 216.715 416.277 215.572C416.277 214.523 416.646 213.715 417.385 213.146C418.129 212.572 419.178 212.285 420.531 212.285C421.885 212.285 422.931 212.572 423.669 213.146C424.413 213.715 424.785 214.523 424.785 215.572C424.785 216.715 424.413 217.603 423.669 218.235C422.931 218.862 421.885 219.176 420.531 219.176ZM420.531 217.559C421.287 217.559 421.87 217.377 422.28 217.014C422.696 216.65 422.904 216.141 422.904 215.484C422.904 214.781 422.696 214.233 422.28 213.841C421.87 213.448 421.287 213.252 420.531 213.252C419.775 213.252 419.189 213.448 418.773 213.841C418.363 214.233 418.158 214.781 418.158 215.484C418.158 216.141 418.363 216.65 418.773 217.014C419.189 217.377 419.775 217.559 420.531 217.559ZM419.072 212.795V211.898H422.008V212.795H419.072ZM420.531 211.564C421.176 211.564 421.674 211.415 422.025 211.116C422.377 210.812 422.553 210.393 422.553 209.859C422.553 209.25 422.377 208.781 422.025 208.453C421.674 208.125 421.176 207.961 420.531 207.961C419.893 207.961 419.395 208.125 419.037 208.453C418.686 208.781 418.51 209.25 418.51 209.859C418.51 210.393 418.686 210.812 419.037 211.116C419.395 211.415 419.893 211.564 420.531 211.564ZM420.531 212.443C419.295 212.443 418.334 212.188 417.648 211.679C416.969 211.163 416.629 210.439 416.629 209.508C416.629 208.506 416.969 207.729 417.648 207.179C418.334 206.622 419.295 206.344 420.531 206.344C421.773 206.344 422.734 206.622 423.414 207.179C424.094 207.729 424.434 208.506 424.434 209.508C424.434 210.439 424.094 211.163 423.414 211.679C422.734 212.188 421.773 212.443 420.531 212.443ZM437.863 219V217.031C439.791 215.965 441.229 214.852 442.179 213.691C443.134 212.531 443.611 211.336 443.611 210.105C443.611 209.391 443.436 208.854 443.084 208.497C442.732 208.14 442.199 207.961 441.484 207.961C441.01 207.961 440.515 208.099 439.999 208.374C439.483 208.649 439.041 209.016 438.672 209.473L437.459 208.269C437.863 207.688 438.438 207.223 439.182 206.871C439.926 206.52 440.705 206.344 441.52 206.344C442.838 206.344 443.822 206.657 444.473 207.284C445.129 207.905 445.457 208.846 445.457 210.105C445.457 211.371 445.056 212.587 444.253 213.753C443.456 214.913 442.24 216.029 440.605 217.102V219H437.863ZM438.391 219V217.365H445.984V219H438.391ZM462.051 219V206.52H463.914V219H462.051ZM458.939 219V217.365H462.227V219H458.939ZM463.738 219V217.365H466.691V219H463.738ZM459.115 209.35V207.574L462.051 206.52V208.33L459.115 209.35ZM482.881 226.831V198.706H484.744V226.831H482.881ZM501.812 219.053L501.637 217.383C505.352 217.225 507.209 215.555 507.209 212.373V208.91L509.16 211.143V211.564C509.16 213.943 508.554 215.757 507.341 217.005C506.134 218.247 504.291 218.93 501.812 219.053ZM504.871 212.812C505.621 212.812 506.198 212.602 506.603 212.18C507.007 211.758 507.209 211.16 507.209 210.387C507.209 209.578 507.004 208.972 506.594 208.567C506.184 208.163 505.568 207.961 504.748 207.961C504.045 207.961 503.503 208.189 503.122 208.646C502.741 209.098 502.551 209.736 502.551 210.562C502.551 211.283 502.75 211.84 503.148 212.232C503.553 212.619 504.127 212.812 504.871 212.812ZM504.08 214.43C502.99 214.43 502.149 214.093 501.558 213.419C500.966 212.745 500.67 211.793 500.67 210.562C500.67 209.227 501.024 208.189 501.733 207.451C502.448 206.713 503.459 206.344 504.766 206.344C506.172 206.344 507.256 206.763 508.018 207.601C508.779 208.433 509.16 209.613 509.16 211.143L507.701 210.105V212.391H507.051C506.875 213.041 506.523 213.545 505.996 213.902C505.475 214.254 504.836 214.43 504.08 214.43ZM526.123 219.176C524.775 219.176 523.732 218.856 522.994 218.218C522.256 217.573 521.887 216.668 521.887 215.502H523.768C523.768 216.152 523.973 216.659 524.383 217.022C524.793 217.38 525.379 217.559 526.141 217.559C526.879 217.559 527.45 217.333 527.854 216.882C528.259 216.431 528.461 215.795 528.461 214.975C528.461 214.172 528.238 213.551 527.793 213.111C527.354 212.666 526.732 212.443 525.93 212.443C525.109 212.443 524.342 212.637 523.627 213.023L523.785 211.529C524.248 211.266 524.708 211.09 525.165 211.002C525.622 210.908 526.082 210.861 526.545 210.861C527.752 210.861 528.687 211.219 529.349 211.934C530.011 212.648 530.342 213.662 530.342 214.975C530.342 215.865 530.175 216.624 529.841 217.251C529.513 217.878 529.035 218.355 528.408 218.684C527.781 219.012 527.02 219.176 526.123 219.176ZM522.643 213.023L522.818 206.52H524.664L524.365 211.934L523.627 213.023H522.643ZM523.662 208.154L523.504 206.52H529.551V208.154H523.662ZM542.471 216.205L544.229 207.223H546.039L544.264 216.205H542.471ZM542.471 216.205L543.701 214.658H548.887V216.205H542.471ZM550.311 216.205V214.658H551.664V216.205H550.311ZM548.711 219V206.52H550.486V219H548.711ZM567.256 226.831V198.706H569.119V226.831H567.256ZM588.525 219.176C587.881 219.176 587.289 219.138 586.75 219.062C586.217 218.985 585.742 218.883 585.326 218.754L585.546 217.075C585.903 217.175 586.305 217.28 586.75 217.392C587.201 217.503 587.77 217.559 588.455 217.559C589.357 217.559 590.058 217.377 590.556 217.014C591.054 216.65 591.303 216.141 591.303 215.484C591.303 215.016 591.159 214.617 590.872 214.289C590.585 213.961 590.166 213.712 589.615 213.542C589.07 213.372 588.408 213.287 587.629 213.287H587.348L587.137 212.145L589.826 212.355C590.822 212.432 591.631 212.757 592.252 213.331C592.873 213.899 593.184 214.676 593.184 215.66C593.184 216.773 592.776 217.638 591.962 218.253C591.153 218.868 590.008 219.176 588.525 219.176ZM587.348 213.287L587.137 212.145C588.051 212.021 588.795 211.84 589.369 211.6C589.943 211.359 590.365 211.069 590.635 210.729C590.904 210.384 591.039 210 591.039 209.578C591.039 209.068 590.875 208.673 590.547 208.392C590.225 208.104 589.762 207.961 589.158 207.961C588.713 207.961 588.238 208.072 587.734 208.295C587.236 208.518 586.765 208.852 586.319 209.297L585.106 208.093C585.646 207.483 586.27 207.041 586.979 206.766C587.688 206.484 588.479 206.344 589.352 206.344C590.488 206.344 591.367 206.587 591.988 207.073C592.609 207.554 592.92 208.242 592.92 209.139C592.92 209.889 592.68 210.542 592.199 211.099C591.719 211.649 591.092 212.027 590.318 212.232V213.287H587.348ZM607.677 216.144L606.139 214.377V213.604C606.139 211.33 606.742 209.602 607.949 208.418C609.162 207.234 611.008 206.584 613.486 206.467L613.662 208.137C609.947 208.295 608.09 209.965 608.09 213.146L607.677 216.144ZM610.533 219.176C609.127 219.176 608.043 218.76 607.281 217.928C606.52 217.09 606.139 215.906 606.139 214.377L607.598 215.414V213.129H608.248C608.424 212.479 608.772 211.978 609.294 211.626C609.821 211.269 610.463 211.09 611.219 211.09C612.309 211.09 613.149 211.427 613.741 212.101C614.333 212.774 614.629 213.727 614.629 214.957C614.629 216.293 614.274 217.33 613.565 218.068C612.856 218.807 611.846 219.176 610.533 219.176ZM610.551 217.559C611.236 217.559 611.764 217.333 612.133 216.882C612.508 216.425 612.695 215.783 612.695 214.957C612.695 214.236 612.499 213.683 612.106 213.296C611.72 212.903 611.16 212.707 610.428 212.707C609.678 212.707 609.098 212.918 608.688 213.34C608.277 213.762 608.072 214.359 608.072 215.133C608.072 215.941 608.28 216.548 608.696 216.952C609.112 217.356 609.73 217.559 610.551 217.559ZM630.124 219L634.413 206.52H636.338L632.049 219H630.124ZM627.18 210.896V206.783H628.99V210.896H627.18ZM627.18 208.189V206.52H636.338L635.09 208.189H627.18ZM651.631 226.831V198.706H653.494V226.831H651.631ZM398.506 247.831V219.706H400.369V247.831H398.506ZM417.833 237.144L416.295 235.377V234.604C416.295 232.33 416.898 230.602 418.105 229.418C419.318 228.234 421.164 227.584 423.643 227.467L423.818 229.137C420.104 229.295 418.246 230.965 418.246 234.146L417.833 237.144ZM420.689 240.176C419.283 240.176 418.199 239.76 417.438 238.928C416.676 238.09 416.295 236.906 416.295 235.377L417.754 236.414V234.129H418.404C418.58 233.479 418.929 232.978 419.45 232.626C419.978 232.269 420.619 232.09 421.375 232.09C422.465 232.09 423.306 232.427 423.897 233.101C424.489 233.774 424.785 234.727 424.785 235.957C424.785 237.293 424.431 238.33 423.722 239.068C423.013 239.807 422.002 240.176 420.689 240.176ZM420.707 238.559C421.393 238.559 421.92 238.333 422.289 237.882C422.664 237.425 422.852 236.783 422.852 235.957C422.852 235.236 422.655 234.683 422.263 234.296C421.876 233.903 421.316 233.707 420.584 233.707C419.834 233.707 419.254 233.918 418.844 234.34C418.434 234.762 418.229 235.359 418.229 236.133C418.229 236.941 418.437 237.548 418.853 237.952C419.269 238.356 419.887 238.559 420.707 238.559ZM437.002 237.205L438.76 228.223H440.57L438.795 237.205H437.002ZM437.002 237.205L438.232 235.658H443.418V237.205H437.002ZM444.842 237.205V235.658H446.195V237.205H444.842ZM443.242 240V227.52H445.018V240H443.242ZM461.963 240.176C461.318 240.176 460.727 240.138 460.188 240.062C459.654 239.985 459.18 239.883 458.764 239.754L458.983 238.075C459.341 238.175 459.742 238.28 460.188 238.392C460.639 238.503 461.207 238.559 461.893 238.559C462.795 238.559 463.495 238.377 463.993 238.014C464.491 237.65 464.74 237.141 464.74 236.484C464.74 236.016 464.597 235.617 464.31 235.289C464.022 234.961 463.604 234.712 463.053 234.542C462.508 234.372 461.846 234.287 461.066 234.287H460.785L460.574 233.145L463.264 233.355C464.26 233.432 465.068 233.757 465.689 234.331C466.311 234.899 466.621 235.676 466.621 236.66C466.621 237.773 466.214 238.638 465.399 239.253C464.591 239.868 463.445 240.176 461.963 240.176ZM460.785 234.287L460.574 233.145C461.488 233.021 462.232 232.84 462.807 232.6C463.381 232.359 463.803 232.069 464.072 231.729C464.342 231.384 464.477 231 464.477 230.578C464.477 230.068 464.312 229.673 463.984 229.392C463.662 229.104 463.199 228.961 462.596 228.961C462.15 228.961 461.676 229.072 461.172 229.295C460.674 229.518 460.202 229.852 459.757 230.297L458.544 229.093C459.083 228.483 459.707 228.041 460.416 227.766C461.125 227.484 461.916 227.344 462.789 227.344C463.926 227.344 464.805 227.587 465.426 228.073C466.047 228.554 466.357 229.242 466.357 230.139C466.357 230.889 466.117 231.542 465.637 232.099C465.156 232.649 464.529 233.027 463.756 233.232V234.287H460.785ZM482.881 247.831V219.706H484.744V247.831H482.881ZM504.238 240V227.52H506.102V240H504.238ZM501.127 240V238.365H504.414V240H501.127ZM505.926 240V238.365H508.879V240H505.926ZM501.303 230.35V228.574L504.238 227.52V229.33L501.303 230.35ZM524.655 240L528.944 227.52H530.869L526.58 240H524.655ZM521.711 231.896V227.783H523.521V231.896H521.711ZM521.711 229.189V227.52H530.869L529.621 229.189H521.711ZM547.094 240.176C545.74 240.176 544.691 239.862 543.947 239.235C543.209 238.603 542.84 237.715 542.84 236.572C542.84 235.523 543.209 234.715 543.947 234.146C544.691 233.572 545.74 233.285 547.094 233.285C548.447 233.285 549.493 233.572 550.231 234.146C550.976 234.715 551.348 235.523 551.348 236.572C551.348 237.715 550.976 238.603 550.231 239.235C549.493 239.862 548.447 240.176 547.094 240.176ZM547.094 238.559C547.85 238.559 548.433 238.377 548.843 238.014C549.259 237.65 549.467 237.141 549.467 236.484C549.467 235.781 549.259 235.233 548.843 234.841C548.433 234.448 547.85 234.252 547.094 234.252C546.338 234.252 545.752 234.448 545.336 234.841C544.926 235.233 544.721 235.781 544.721 236.484C544.721 237.141 544.926 237.65 545.336 238.014C545.752 238.377 546.338 238.559 547.094 238.559ZM545.635 233.795V232.898H548.57V233.795H545.635ZM547.094 232.564C547.738 232.564 548.236 232.415 548.588 232.116C548.939 231.812 549.115 231.393 549.115 230.859C549.115 230.25 548.939 229.781 548.588 229.453C548.236 229.125 547.738 228.961 547.094 228.961C546.455 228.961 545.957 229.125 545.6 229.453C545.248 229.781 545.072 230.25 545.072 230.859C545.072 231.393 545.248 231.812 545.6 232.116C545.957 232.415 546.455 232.564 547.094 232.564ZM547.094 233.443C545.857 233.443 544.896 233.188 544.211 232.679C543.531 232.163 543.191 231.439 543.191 230.508C543.191 229.506 543.531 228.729 544.211 228.179C544.896 227.622 545.857 227.344 547.094 227.344C548.336 227.344 549.297 227.622 549.977 228.179C550.656 228.729 550.996 229.506 550.996 230.508C550.996 231.439 550.656 232.163 549.977 232.679C549.297 233.188 548.336 233.443 547.094 233.443ZM567.256 247.831V219.706H569.119V247.831H567.256ZM586.188 240.053L586.012 238.383C589.727 238.225 591.584 236.555 591.584 233.373V229.91L593.535 232.143V232.564C593.535 234.943 592.929 236.757 591.716 238.005C590.509 239.247 588.666 239.93 586.188 240.053ZM589.246 233.812C589.996 233.812 590.573 233.602 590.978 233.18C591.382 232.758 591.584 232.16 591.584 231.387C591.584 230.578 591.379 229.972 590.969 229.567C590.559 229.163 589.943 228.961 589.123 228.961C588.42 228.961 587.878 229.189 587.497 229.646C587.116 230.098 586.926 230.736 586.926 231.562C586.926 232.283 587.125 232.84 587.523 233.232C587.928 233.619 588.502 233.812 589.246 233.812ZM588.455 235.43C587.365 235.43 586.524 235.093 585.933 234.419C585.341 233.745 585.045 232.793 585.045 231.562C585.045 230.227 585.399 229.189 586.108 228.451C586.823 227.713 587.834 227.344 589.141 227.344C590.547 227.344 591.631 227.763 592.393 228.601C593.154 229.433 593.535 230.613 593.535 232.143L592.076 231.105V233.391H591.426C591.25 234.041 590.898 234.545 590.371 234.902C589.85 235.254 589.211 235.43 588.455 235.43ZM610.498 240.176C609.15 240.176 608.107 239.856 607.369 239.218C606.631 238.573 606.262 237.668 606.262 236.502H608.143C608.143 237.152 608.348 237.659 608.758 238.022C609.168 238.38 609.754 238.559 610.516 238.559C611.254 238.559 611.825 238.333 612.229 237.882C612.634 237.431 612.836 236.795 612.836 235.975C612.836 235.172 612.613 234.551 612.168 234.111C611.729 233.666 611.107 233.443 610.305 233.443C609.484 233.443 608.717 233.637 608.002 234.023L608.16 232.529C608.623 232.266 609.083 232.09 609.54 232.002C609.997 231.908 610.457 231.861 610.92 231.861C612.127 231.861 613.062 232.219 613.724 232.934C614.386 233.648 614.717 234.662 614.717 235.975C614.717 236.865 614.55 237.624 614.216 238.251C613.888 238.878 613.41 239.355 612.783 239.684C612.156 240.012 611.395 240.176 610.498 240.176ZM607.018 234.023L607.193 227.52H609.039L608.74 232.934L608.002 234.023H607.018ZM608.037 229.154L607.879 227.52H613.926V229.154H608.037ZM627.707 240V238.031C629.635 236.965 631.073 235.852 632.022 234.691C632.978 233.531 633.455 232.336 633.455 231.105C633.455 230.391 633.279 229.854 632.928 229.497C632.576 229.14 632.043 228.961 631.328 228.961C630.854 228.961 630.358 229.099 629.843 229.374C629.327 229.649 628.885 230.016 628.516 230.473L627.303 229.269C627.707 228.688 628.281 228.223 629.025 227.871C629.77 227.52 630.549 227.344 631.363 227.344C632.682 227.344 633.666 227.657 634.316 228.284C634.973 228.905 635.301 229.846 635.301 231.105C635.301 232.371 634.899 233.587 634.097 234.753C633.3 235.913 632.084 237.029 630.449 238.102V240H627.707ZM628.234 240V238.365H635.828V240H628.234ZM651.631 247.831V219.706H653.494V247.831H651.631ZM398.506 268.831V240.706H400.369V268.831H398.506ZM417.438 261.053L417.262 259.383C420.977 259.225 422.834 257.555 422.834 254.373V250.91L424.785 253.143V253.564C424.785 255.943 424.179 257.757 422.966 259.005C421.759 260.247 419.916 260.93 417.438 261.053ZM420.496 254.812C421.246 254.812 421.823 254.602 422.228 254.18C422.632 253.758 422.834 253.16 422.834 252.387C422.834 251.578 422.629 250.972 422.219 250.567C421.809 250.163 421.193 249.961 420.373 249.961C419.67 249.961 419.128 250.189 418.747 250.646C418.366 251.098 418.176 251.736 418.176 252.562C418.176 253.283 418.375 253.84 418.773 254.232C419.178 254.619 419.752 254.812 420.496 254.812ZM419.705 256.43C418.615 256.43 417.774 256.093 417.183 255.419C416.591 254.745 416.295 253.793 416.295 252.562C416.295 251.227 416.649 250.189 417.358 249.451C418.073 248.713 419.084 248.344 420.391 248.344C421.797 248.344 422.881 248.763 423.643 249.601C424.404 250.433 424.785 251.613 424.785 253.143L423.326 252.105V254.391H422.676C422.5 255.041 422.148 255.545 421.621 255.902C421.1 256.254 420.461 256.43 419.705 256.43ZM440.28 261L444.569 248.52H446.494L442.205 261H440.28ZM437.336 252.896V248.783H439.146V252.896H437.336ZM437.336 250.189V248.52H446.494L445.246 250.189H437.336ZM462.842 261.176C461.494 261.176 460.451 260.856 459.713 260.218C458.975 259.573 458.605 258.668 458.605 257.502H460.486C460.486 258.152 460.691 258.659 461.102 259.022C461.512 259.38 462.098 259.559 462.859 259.559C463.598 259.559 464.169 259.333 464.573 258.882C464.978 258.431 465.18 257.795 465.18 256.975C465.18 256.172 464.957 255.551 464.512 255.111C464.072 254.666 463.451 254.443 462.648 254.443C461.828 254.443 461.061 254.637 460.346 255.023L460.504 253.529C460.967 253.266 461.427 253.09 461.884 253.002C462.341 252.908 462.801 252.861 463.264 252.861C464.471 252.861 465.405 253.219 466.067 253.934C466.729 254.648 467.061 255.662 467.061 256.975C467.061 257.865 466.894 258.624 466.56 259.251C466.231 259.878 465.754 260.355 465.127 260.684C464.5 261.012 463.738 261.176 462.842 261.176ZM459.361 255.023L459.537 248.52H461.383L461.084 253.934L460.346 255.023H459.361ZM460.381 250.154L460.223 248.52H466.27V250.154H460.381ZM482.881 268.831V240.706H484.744V268.831H482.881ZM501.145 261V259.031C503.072 257.965 504.511 256.852 505.46 255.691C506.415 254.531 506.893 253.336 506.893 252.105C506.893 251.391 506.717 250.854 506.365 250.497C506.014 250.14 505.48 249.961 504.766 249.961C504.291 249.961 503.796 250.099 503.28 250.374C502.765 250.649 502.322 251.016 501.953 251.473L500.74 250.269C501.145 249.688 501.719 249.223 502.463 248.871C503.207 248.52 503.986 248.344 504.801 248.344C506.119 248.344 507.104 248.657 507.754 249.284C508.41 249.905 508.738 250.846 508.738 252.105C508.738 253.371 508.337 254.587 507.534 255.753C506.737 256.913 505.521 258.029 503.887 259.102V261H501.145ZM501.672 261V259.365H509.266V261H501.672ZM523.302 258.144L521.764 256.377V255.604C521.764 253.33 522.367 251.602 523.574 250.418C524.787 249.234 526.633 248.584 529.111 248.467L529.287 250.137C525.572 250.295 523.715 251.965 523.715 255.146L523.302 258.144ZM526.158 261.176C524.752 261.176 523.668 260.76 522.906 259.928C522.145 259.09 521.764 257.906 521.764 256.377L523.223 257.414V255.129H523.873C524.049 254.479 524.397 253.978 524.919 253.626C525.446 253.269 526.088 253.09 526.844 253.09C527.934 253.09 528.774 253.427 529.366 254.101C529.958 254.774 530.254 255.727 530.254 256.957C530.254 258.293 529.899 259.33 529.19 260.068C528.481 260.807 527.471 261.176 526.158 261.176ZM526.176 259.559C526.861 259.559 527.389 259.333 527.758 258.882C528.133 258.425 528.32 257.783 528.32 256.957C528.32 256.236 528.124 255.683 527.731 255.296C527.345 254.903 526.785 254.707 526.053 254.707C525.303 254.707 524.723 254.918 524.312 255.34C523.902 255.762 523.697 256.359 523.697 257.133C523.697 257.941 523.905 258.548 524.321 258.952C524.737 259.356 525.355 259.559 526.176 259.559ZM546.338 261.176C545.693 261.176 545.102 261.138 544.562 261.062C544.029 260.985 543.555 260.883 543.139 260.754L543.358 259.075C543.716 259.175 544.117 259.28 544.562 259.392C545.014 259.503 545.582 259.559 546.268 259.559C547.17 259.559 547.87 259.377 548.368 259.014C548.866 258.65 549.115 258.141 549.115 257.484C549.115 257.016 548.972 256.617 548.685 256.289C548.397 255.961 547.979 255.712 547.428 255.542C546.883 255.372 546.221 255.287 545.441 255.287H545.16L544.949 254.145L547.639 254.355C548.635 254.432 549.443 254.757 550.064 255.331C550.686 255.899 550.996 256.676 550.996 257.66C550.996 258.773 550.589 259.638 549.774 260.253C548.966 260.868 547.82 261.176 546.338 261.176ZM545.16 255.287L544.949 254.145C545.863 254.021 546.607 253.84 547.182 253.6C547.756 253.359 548.178 253.069 548.447 252.729C548.717 252.384 548.852 252 548.852 251.578C548.852 251.068 548.688 250.673 548.359 250.392C548.037 250.104 547.574 249.961 546.971 249.961C546.525 249.961 546.051 250.072 545.547 250.295C545.049 250.518 544.577 250.852 544.132 251.297L542.919 250.093C543.458 249.483 544.082 249.041 544.791 248.766C545.5 248.484 546.291 248.344 547.164 248.344C548.301 248.344 549.18 248.587 549.801 249.073C550.422 249.554 550.732 250.242 550.732 251.139C550.732 251.889 550.492 252.542 550.012 253.099C549.531 253.649 548.904 254.027 548.131 254.232V255.287H545.16ZM567.256 268.831V240.706H569.119V268.831H567.256ZM584.658 258.205L586.416 249.223H588.227L586.451 258.205H584.658ZM584.658 258.205L585.889 256.658H591.074V258.205H584.658ZM592.498 258.205V256.658H593.852V258.205H592.498ZM590.898 261V248.52H592.674V261H590.898ZM609.707 261V248.52H611.57V261H609.707ZM606.596 261V259.365H609.883V261H606.596ZM611.395 261V259.365H614.348V261H611.395ZM606.771 251.35V249.574L609.707 248.52V250.33L606.771 251.35ZM631.469 261.176C630.115 261.176 629.066 260.862 628.322 260.235C627.584 259.603 627.215 258.715 627.215 257.572C627.215 256.523 627.584 255.715 628.322 255.146C629.066 254.572 630.115 254.285 631.469 254.285C632.822 254.285 633.868 254.572 634.606 255.146C635.351 255.715 635.723 256.523 635.723 257.572C635.723 258.715 635.351 259.603 634.606 260.235C633.868 260.862 632.822 261.176 631.469 261.176ZM631.469 259.559C632.225 259.559 632.808 259.377 633.218 259.014C633.634 258.65 633.842 258.141 633.842 257.484C633.842 256.781 633.634 256.233 633.218 255.841C632.808 255.448 632.225 255.252 631.469 255.252C630.713 255.252 630.127 255.448 629.711 255.841C629.301 256.233 629.096 256.781 629.096 257.484C629.096 258.141 629.301 258.65 629.711 259.014C630.127 259.377 630.713 259.559 631.469 259.559ZM630.01 254.795V253.898H632.945V254.795H630.01ZM631.469 253.564C632.113 253.564 632.611 253.415 632.963 253.116C633.314 252.812 633.49 252.393 633.49 251.859C633.49 251.25 633.314 250.781 632.963 250.453C632.611 250.125 632.113 249.961 631.469 249.961C630.83 249.961 630.332 250.125 629.975 250.453C629.623 250.781 629.447 251.25 629.447 251.859C629.447 252.393 629.623 252.812 629.975 253.116C630.332 253.415 630.83 253.564 631.469 253.564ZM631.469 254.443C630.232 254.443 629.271 254.188 628.586 253.679C627.906 253.163 627.566 252.439 627.566 251.508C627.566 250.506 627.906 249.729 628.586 249.179C629.271 248.622 630.232 248.344 631.469 248.344C632.711 248.344 633.672 248.622 634.352 249.179C635.031 249.729 635.371 250.506 635.371 251.508C635.371 252.439 635.031 253.163 634.352 253.679C633.672 254.188 632.711 254.443 631.469 254.443ZM651.631 268.831V240.706H653.494V268.831H651.631ZM398.506 276.7V261.706H400.369V274.837H405.643V276.7H398.506ZM403.779 276.7V274.837H416.189V276.7H403.779ZM414.326 276.7V274.837H426.736V276.7H414.326ZM424.873 276.7V274.837H437.283V276.7H424.873ZM435.42 276.7V274.837H447.83V276.7H435.42ZM445.967 276.7V274.837H458.377V276.7H445.967ZM456.514 276.7V274.837H468.924V276.7H456.514ZM467.061 276.7V274.837H479.471V276.7H467.061ZM477.607 276.7V274.837H482.881V261.706H484.744V274.837H490.018V276.7H477.607ZM488.154 276.7V274.837H500.564V276.7H488.154ZM498.701 276.7V274.837H511.111V276.7H498.701ZM509.248 276.7V274.837H521.658V276.7H509.248ZM519.795 276.7V274.837H532.205V276.7H519.795ZM530.342 276.7V274.837H542.752V276.7H530.342ZM540.889 276.7V274.837H553.299V276.7H540.889ZM551.436 276.7V274.837H563.846V276.7H551.436ZM561.982 276.7V274.837H567.256V261.706H569.119V274.837H574.393V276.7H561.982ZM572.529 276.7V274.837H584.939V276.7H572.529ZM583.076 276.7V274.837H595.486V276.7H583.076ZM593.623 276.7V274.837H606.033V276.7H593.623ZM604.17 276.7V274.837H616.58V276.7H604.17ZM614.717 276.7V274.837H627.127V276.7H614.717ZM625.264 276.7V274.837H637.674V276.7H625.264ZM635.811 276.7V274.837H648.221V276.7H635.811ZM646.357 276.7V274.837H651.631V261.706H653.494V276.7H646.357Z" fill="#414141"/>
</svg>
